<?xml version="1.0" encoding="UTF-8" standalone="no"?>
<!-- Generator: Adobe Illustrator 18.0.0, SVG Export Plug-In . SVG Version: 6.00 Build 0)  -->

<svg
   xmlns:dc="http://purl.org/dc/elements/1.1/"
   xmlns:cc="http://creativecommons.org/ns#"
   xmlns:rdf="http://www.w3.org/1999/02/22-rdf-syntax-ns#"
   xmlns:svg="http://www.w3.org/2000/svg"
   xmlns="http://www.w3.org/2000/svg"
   xmlns:sodipodi="http://sodipodi.sourceforge.net/DTD/sodipodi-0.dtd"
   xmlns:inkscape="http://www.inkscape.org/namespaces/inkscape"
   version="1.1"
   id="Ebene_1"
   x="0px"
   y="0px"
   viewBox="0 0 402.1 319.1484"
   enable-background="new 0 0 600 600"
   xml:space="preserve"
   inkscape:version="0.48.4 r9939"
   width="100%"
   height="100%"
   sodipodi:docname="reek.svg"><metadata
     id="metadata3999"><rdf:RDF><cc:Work
         rdf:about=""><dc:format>image/svg+xml</dc:format><dc:type
           rdf:resource="http://purl.org/dc/dcmitype/StillImage" /><dc:title></dc:title></cc:Work></rdf:RDF></metadata><defs
     id="defs3997" /><sodipodi:namedview
     pagecolor="#ffffff"
     bordercolor="#666666"
     borderopacity="1"
     objecttolerance="10"
     gridtolerance="10"
     guidetolerance="10"
     inkscape:pageopacity="0"
     inkscape:pageshadow="2"
     inkscape:window-width="1920"
     inkscape:window-height="1176"
     id="namedview3995"
     showgrid="false"
     fit-margin-top="0"
     fit-margin-left="0"
     fit-margin-right="0"
     fit-margin-bottom="0"
     inkscape:zoom="0.39333333"
     inkscape:cx="200.8"
     inkscape:cy="159.4"
     inkscape:window-x="0"
     inkscape:window-y="24"
     inkscape:window-maximized="1"
     inkscape:current-layer="Ebene_1" /><polygon
     points="250.4,146 156.5,185.1 99.2,256.2 300.3,459.4 300.3,339 256,238.3 350.2,146 350.2,146 "
     id="polygon3839"
     style="fill:#a41611"
     transform="translate(-99.2,-140.2516)" /><polygon
     points="300.3,339 300.3,459.4 501.3,256.2 444.1,185.1 350.2,146 256,238.3 "
     id="polygon3841"
     style="fill:#d41217"
     transform="translate(-99.2,-140.2516)" /><circle
     cx="310.10001"
     cy="191.7"
     r="3.7"
     id="circle3843"
     sodipodi:cx="310.10001"
     sodipodi:cy="191.7"
     sodipodi:rx="3.7"
     sodipodi:ry="3.7"
     style="fill:none"
     transform="translate(-99.2,-140.2516)" /><circle
     cx="298.29999"
     cy="205.7"
     r="3.7"
     id="circle3845"
     sodipodi:cx="298.29999"
     sodipodi:cy="205.7"
     sodipodi:rx="3.7"
     sodipodi:ry="3.7"
     style="fill:none"
     transform="translate(-99.2,-140.2516)" /><circle
     cx="307.79999"
     cy="165.8"
     r="3.7"
     id="circle3847"
     sodipodi:cx="307.79999"
     sodipodi:cy="165.8"
     sodipodi:rx="3.7"
     sodipodi:ry="3.7"
     style="fill:none"
     transform="translate(-99.2,-140.2516)" /><circle
     cx="319.60001"
     cy="151.8"
     r="3.7"
     id="circle3849"
     sodipodi:cx="319.60001"
     sodipodi:cy="151.8"
     sodipodi:rx="3.7"
     sodipodi:ry="3.7"
     style="fill:none"
     transform="translate(-99.2,-140.2516)" /><circle
     cx="284.20001"
     cy="193.89999"
     r="3.7"
     id="circle3851"
     sodipodi:cx="284.20001"
     sodipodi:cy="193.89999"
     sodipodi:rx="3.7"
     sodipodi:ry="3.7"
     style="fill:none"
     transform="translate(-99.2,-140.2516)" /><circle
     cx="321.89999"
     cy="177.60001"
     r="3.7"
     id="circle3853"
     sodipodi:cx="321.89999"
     sodipodi:cy="177.60001"
     sodipodi:rx="3.7"
     sodipodi:ry="3.7"
     style="fill:none"
     transform="translate(-99.2,-140.2516)" /><circle
     cx="281.89999"
     cy="168.10001"
     r="3.7"
     id="circle3855"
     sodipodi:cx="281.89999"
     sodipodi:cy="168.10001"
     sodipodi:rx="3.7"
     sodipodi:ry="3.7"
     style="fill:none"
     transform="translate(-99.2,-140.2516)" /><circle
     cx="293.70001"
     cy="154"
     r="3.7"
     id="circle3857"
     sodipodi:cx="293.70001"
     sodipodi:cy="154"
     sodipodi:rx="3.7"
     sodipodi:ry="3.7"
     style="fill:none"
     transform="translate(-99.2,-140.2516)" /><circle
     cx="296"
     cy="179.89999"
     r="3.7"
     id="circle3859"
     sodipodi:cx="296"
     sodipodi:cy="179.89999"
     sodipodi:rx="3.7"
     sodipodi:ry="3.7"
     style="fill:none"
     transform="translate(-99.2,-140.2516)" /><path
     d="m 243.4,6.8484021 c -1.3,1.6 -1.1,3.8999999 0.5,5.1999999 1.6,1.3 3.9,1.1 5.2,-0.5 1.3,-1.5999999 1.1,-3.8999999 -0.5,-5.1999999 -0.4,-0.3 -0.7,-0.5 -1.2,-0.6 -0.7,0 -1.4,0 -2.3,0 -0.6,0.2 -1.2,0.6 -1.7,1.1 z"
     id="path3861"
     inkscape:connector-curvature="0"
     style="fill:none" /><circle
     cx="359.5"
     cy="161.3"
     r="3.7"
     id="circle3863"
     sodipodi:cx="359.5"
     sodipodi:cy="161.3"
     sodipodi:rx="3.7"
     sodipodi:ry="3.7"
     style="fill:none"
     transform="translate(-99.2,-140.2516)" /><circle
     cx="361.79999"
     cy="187.10001"
     r="3.7"
     id="circle3865"
     sodipodi:cx="361.79999"
     sodipodi:cy="187.10001"
     sodipodi:rx="3.7"
     sodipodi:ry="3.7"
     style="fill:none"
     transform="translate(-99.2,-140.2516)" /><circle
     cx="350"
     cy="201.2"
     r="3.7"
     id="circle3867"
     sodipodi:cx="350"
     sodipodi:cy="201.2"
     sodipodi:rx="3.7"
     sodipodi:ry="3.7"
     style="fill:none"
     transform="translate(-99.2,-140.2516)" /><circle
     cx="324.10001"
     cy="203.5"
     r="3.7"
     id="circle3869"
     sodipodi:cx="324.10001"
     sodipodi:cy="203.5"
     sodipodi:rx="3.7"
     sodipodi:ry="3.7"
     style="fill:none"
     transform="translate(-99.2,-140.2516)" /><circle
     cx="333.70001"
     cy="163.5"
     r="3.7"
     id="circle3871"
     sodipodi:cx="333.70001"
     sodipodi:cy="163.5"
     sodipodi:rx="3.7"
     sodipodi:ry="3.7"
     style="fill:none"
     transform="translate(-99.2,-140.2516)" /><circle
     cx="335.89999"
     cy="189.39999"
     r="3.7"
     id="circle3873"
     sodipodi:cx="335.89999"
     sodipodi:cy="189.39999"
     sodipodi:rx="3.7"
     sodipodi:ry="3.7"
     style="fill:none"
     transform="translate(-99.2,-140.2516)" /><circle
     cx="347.70001"
     cy="175.3"
     r="3.7"
     id="circle3875"
     sodipodi:cx="347.70001"
     sodipodi:cy="175.3"
     sodipodi:rx="3.7"
     sodipodi:ry="3.7"
     style="fill:none"
     transform="translate(-99.2,-140.2516)" /><path
     d="m 245.2,5.7484021 c 0.8,0 1.6,0 2.3,0 -0.8,-0.2 -1.6,-0.2 -2.3,0 z"
     id="path3877"
     inkscape:connector-curvature="0"
     style="fill:#d41217" /><circle
     cx="427.60001"
     cy="312.39999"
     r="3.7"
     id="circle3879"
     sodipodi:cx="427.60001"
     sodipodi:cy="312.39999"
     sodipodi:rx="3.7"
     sodipodi:ry="3.7"
     style="fill:none"
     transform="translate(-99.2,-140.2516)" /><circle
     cx="434.79999"
     cy="254.8"
     r="3.7"
     id="circle3881"
     sodipodi:cx="434.79999"
     sodipodi:cy="254.8"
     sodipodi:rx="3.7"
     sodipodi:ry="3.7"
     style="fill:none"
     transform="translate(-99.2,-140.2516)" /><circle
     cx="435.5"
     cy="295.79999"
     r="3.7"
     id="circle3883"
     sodipodi:cx="435.5"
     sodipodi:cy="295.79999"
     sodipodi:rx="3.7"
     sodipodi:ry="3.7"
     style="fill:none"
     transform="translate(-99.2,-140.2516)" /><circle
     cx="443.39999"
     cy="279.29999"
     r="3.7"
     id="circle3885"
     sodipodi:cx="443.39999"
     sodipodi:cy="279.29999"
     sodipodi:rx="3.7"
     sodipodi:ry="3.7"
     style="fill:none"
     transform="translate(-99.2,-140.2516)" /><circle
     cx="426.89999"
     cy="271.39999"
     r="3.7"
     id="circle3887"
     sodipodi:cx="426.89999"
     sodipodi:cy="271.39999"
     sodipodi:rx="3.7"
     sodipodi:ry="3.7"
     style="fill:none"
     transform="translate(-99.2,-140.2516)" /><circle
     cx="410.29999"
     cy="263.39999"
     r="3.7"
     id="circle3889"
     sodipodi:cx="410.29999"
     sodipodi:cy="263.39999"
     sodipodi:rx="3.7"
     sodipodi:ry="3.7"
     style="fill:none"
     transform="translate(-99.2,-140.2516)" /><circle
     cx="394.5"
     cy="296.5"
     r="3.7"
     id="circle3891"
     sodipodi:cx="394.5"
     sodipodi:cy="296.5"
     sodipodi:rx="3.7"
     sodipodi:ry="3.7"
     style="fill:none"
     transform="translate(-99.2,-140.2516)" /><circle
     cx="418.29999"
     cy="246.89999"
     r="3.7"
     id="circle3893"
     sodipodi:cx="418.29999"
     sodipodi:cy="246.89999"
     sodipodi:rx="3.7"
     sodipodi:ry="3.7"
     style="fill:none"
     transform="translate(-99.2,-140.2516)" /><circle
     cx="419"
     cy="287.89999"
     r="3.7"
     id="circle3895"
     sodipodi:cx="419"
     sodipodi:cy="287.89999"
     sodipodi:rx="3.7"
     sodipodi:ry="3.7"
     style="fill:none"
     transform="translate(-99.2,-140.2516)" /><circle
     cx="402.39999"
     cy="280"
     r="3.7"
     id="circle3897"
     sodipodi:cx="402.39999"
     sodipodi:cy="280"
     sodipodi:rx="3.7"
     sodipodi:ry="3.7"
     style="fill:none"
     transform="translate(-99.2,-140.2516)" /><circle
     cx="419.70001"
     cy="328.89999"
     r="3.7"
     id="circle3899"
     sodipodi:cx="419.70001"
     sodipodi:cy="328.89999"
     sodipodi:rx="3.7"
     sodipodi:ry="3.7"
     style="fill:none"
     transform="translate(-99.2,-140.2516)" /><circle
     cx="386.60001"
     cy="313.10001"
     r="3.7"
     id="circle3901"
     sodipodi:cx="386.60001"
     sodipodi:cy="313.10001"
     sodipodi:rx="3.7"
     sodipodi:ry="3.7"
     style="fill:none"
     transform="translate(-99.2,-140.2516)" /><circle
     cx="378.60001"
     cy="329.60001"
     r="3.7"
     id="circle3903"
     sodipodi:cx="378.60001"
     sodipodi:cy="329.60001"
     sodipodi:rx="3.7"
     sodipodi:ry="3.7"
     style="fill:none"
     transform="translate(-99.2,-140.2516)" /><circle
     cx="362.10001"
     cy="321.70001"
     r="3.7"
     id="circle3905"
     sodipodi:cx="362.10001"
     sodipodi:cy="321.70001"
     sodipodi:rx="3.7"
     sodipodi:ry="3.7"
     style="fill:none"
     transform="translate(-99.2,-140.2516)" /><circle
     cx="370.70001"
     cy="346.20001"
     r="3.7"
     id="circle3907"
     sodipodi:cx="370.70001"
     sodipodi:cy="346.20001"
     sodipodi:rx="3.7"
     sodipodi:ry="3.7"
     style="fill:none"
     transform="translate(-99.2,-140.2516)" /><circle
     cx="395.20001"
     cy="337.60001"
     r="3.7"
     id="circle3909"
     sodipodi:cx="395.20001"
     sodipodi:cy="337.60001"
     sodipodi:rx="3.7"
     sodipodi:ry="3.7"
     style="fill:none"
     transform="translate(-99.2,-140.2516)" /><circle
     cx="411"
     cy="304.5"
     r="3.7"
     id="circle3911"
     sodipodi:cx="411"
     sodipodi:cy="304.5"
     sodipodi:rx="3.7"
     sodipodi:ry="3.7"
     style="fill:none"
     transform="translate(-99.2,-140.2516)" /><circle
     cx="403.10001"
     cy="321"
     r="3.7"
     id="circle3913"
     sodipodi:cx="403.10001"
     sodipodi:cy="321"
     sodipodi:rx="3.7"
     sodipodi:ry="3.7"
     style="fill:none"
     transform="translate(-99.2,-140.2516)" /><circle
     cx="344.79999"
     cy="272.70001"
     r="3.7"
     id="circle3915"
     sodipodi:cx="344.79999"
     sodipodi:cy="272.70001"
     sodipodi:rx="3.7"
     sodipodi:ry="3.7"
     style="fill:none"
     transform="translate(-99.2,-140.2516)" /><circle
     cx="199.7"
     cy="351.39999"
     r="3.7"
     id="circle3917"
     sodipodi:cx="199.7"
     sodipodi:cy="351.39999"
     sodipodi:rx="3.7"
     sodipodi:ry="3.7"
     style="fill:none"
     transform="translate(-99.2,-140.2516)" /><path
     d="m 354.5,160.2484 c -1.8,-0.9 -4,-0.1 -4.9,1.7 -0.9,1.8 -0.1,4 1.7,4.9 l 0.3,0.2 4.7,-4.8 c -0.3,-0.8 -1,-1.6 -1.8,-2 z"
     id="path3919"
     inkscape:connector-curvature="0"
     style="fill:none" /><circle
     cx="191.10001"
     cy="326.89999"
     r="3.7"
     id="circle3921"
     sodipodi:cx="191.10001"
     sodipodi:cy="326.89999"
     sodipodi:rx="3.7"
     sodipodi:ry="3.7"
     style="fill:none"
     transform="translate(-99.2,-140.2516)" /><polygon
     points="321.3,383.7 404.2,354.4 404.2,354.4 "
     id="polygon3923"
     style="fill:none"
     transform="translate(-99.2,-140.2516)" /><circle
     cx="393.79999"
     cy="255.5"
     r="3.7"
     id="circle3925"
     sodipodi:cx="393.79999"
     sodipodi:cy="255.5"
     sodipodi:rx="3.7"
     sodipodi:ry="3.7"
     style="fill:none"
     transform="translate(-99.2,-140.2516)" /><circle
     cx="353.39999"
     cy="297.20001"
     r="3.7"
     id="circle3927"
     sodipodi:cx="353.39999"
     sodipodi:cy="297.20001"
     sodipodi:rx="3.7"
     sodipodi:ry="3.7"
     style="fill:none"
     transform="translate(-99.2,-140.2516)" /><circle
     cx="361.39999"
     cy="280.70001"
     r="3.7"
     id="circle3929"
     sodipodi:cx="361.39999"
     sodipodi:cy="280.70001"
     sodipodi:rx="3.7"
     sodipodi:ry="3.7"
     style="fill:none"
     transform="translate(-99.2,-140.2516)" /><circle
     cx="377.89999"
     cy="288.60001"
     r="3.7"
     id="circle3931"
     sodipodi:cx="377.89999"
     sodipodi:cy="288.60001"
     sodipodi:rx="3.7"
     sodipodi:ry="3.7"
     style="fill:none"
     transform="translate(-99.2,-140.2516)" /><circle
     cx="385.89999"
     cy="272.10001"
     r="3.7"
     id="circle3933"
     sodipodi:cx="385.89999"
     sodipodi:cy="272.10001"
     sodipodi:rx="3.7"
     sodipodi:ry="3.7"
     style="fill:none"
     transform="translate(-99.2,-140.2516)" /><circle
     cx="370"
     cy="305.20001"
     r="3.7"
     id="circle3935"
     sodipodi:cx="370"
     sodipodi:cy="305.20001"
     sodipodi:rx="3.7"
     sodipodi:ry="3.7"
     style="fill:none"
     transform="translate(-99.2,-140.2516)" /><circle
     cx="369.29999"
     cy="264.10001"
     r="3.7"
     id="circle3937"
     sodipodi:cx="369.29999"
     sodipodi:cy="264.10001"
     sodipodi:rx="3.7"
     sodipodi:ry="3.7"
     style="fill:none"
     transform="translate(-99.2,-140.2516)" /><path
     d="m 62.4,188.3484 c -0.4,-0.5 -0.8,-1 -1,-1.4 0.3,0.5 0.6,0.9 1,1.4 z"
     id="path3939"
     inkscape:connector-curvature="0"
     style="fill:#f4c4c5" /><path
     d="m 61.2,186.6484 c -0.3,-0.5 -0.5,-0.9 -0.6,-1.4 0.1,0.5 0.4,0.9 0.6,1.4 z"
     id="path3941"
     inkscape:connector-curvature="0"
     style="fill:#f4c4c5" /><path
     d="m 60.2,180.4484 c 0.1,-0.4 0.1,-0.7 0.2,-1 0,0.3 -0.1,0.6 -0.2,1 z"
     id="path3943"
     inkscape:connector-curvature="0"
     style="fill:#f4c4c5" /><path
     d="m 60.5,179.3484 c 0.1,-0.3 0.2,-0.6 0.3,-0.9 -0.2,0.3 -0.2,0.6 -0.3,0.9 z"
     id="path3945"
     inkscape:connector-curvature="0"
     style="fill:#f4c4c5" /><path
     d="m 60.1,181.8484 c 0,-0.4 0,-0.8 0.1,-1.2 -0.1,0.4 -0.1,0.8 -0.1,1.2 z"
     id="path3947"
     inkscape:connector-curvature="0"
     style="fill:#f4c4c5" /><path
     d="m 60.2,183.5484 c -0.1,-0.5 -0.1,-0.9 -0.1,-1.3 0,0.4 0,0.8 0.1,1.3 z"
     id="path3949"
     inkscape:connector-curvature="0"
     style="fill:#f4c4c5" /><path
     d="m 60.5,184.9484 c -0.1,-0.5 -0.2,-0.9 -0.3,-1.3 0,0.4 0.2,0.8 0.3,1.3 z"
     id="path3951"
     inkscape:connector-curvature="0"
     style="fill:#f4c4c5" /><polygon
     points="250,408.8 250.2,408.8 250.2,408.8 "
     id="polygon3953"
     style="fill:#f4c4c5"
     transform="translate(-99.2,-140.2516)" /><g
     id="g3955"
     transform="translate(-99.2,-140.2516)"><path
       d="m 266.6,208.2 c 0.9,9.7 9.4,16.9 19.2,16.1 l 79.8,-7 c 9.7,-0.9 16.9,-9.4 16.1,-19.2 l -3.4,-40.4 -28,-11.7 c 0,0 -1.3,0 -3.5,0 0.4,0.1 0.8,0.3 1.2,0.6 1.6,1.3 1.8,3.6 0.5,5.2 -1.3,1.6 -3.6,1.8 -5.2,0.5 -1.6,-1.3 -1.8,-3.6 -0.5,-5.2 0.5,-0.6 1.1,-0.9 1.7,-1.1 -16.2,0 -62.1,0 -83.2,0 0,0.1 0,0.1 0,0.1 l 5.3,62.1 z m 98,-18.7 c -1.3,1.6 -3.6,1.8 -5.2,0.5 -1.6,-1.3 -1.8,-3.6 -0.5,-5.2 1.3,-1.6 3.6,-1.8 5.2,-0.5 1.6,1.3 1.8,3.6 0.5,5.2 z m -7.9,-30.6 c 1.3,-1.6 3.6,-1.8 5.2,-0.5 1.6,1.3 1.8,3.6 0.5,5.2 -1.3,1.6 -3.6,1.8 -5.2,0.5 -1.6,-1.3 -1.8,-3.6 -0.5,-5.2 z m -3.9,44.7 c -1.3,1.6 -3.6,1.8 -5.2,0.5 -1.6,-1.3 -1.8,-3.6 -0.5,-5.2 1.3,-1.6 3.6,-1.8 5.2,-0.5 1.6,1.3 1.8,3.6 0.5,5.2 z M 344.9,173 c 1.3,-1.6 3.6,-1.8 5.2,-0.5 1.6,1.3 1.8,3.6 0.5,5.2 -1.3,1.6 -3.6,1.8 -5.2,0.5 -1.6,-1.4 -1.8,-3.7 -0.5,-5.2 z m -6.2,18.8 c -1.3,1.6 -3.6,1.8 -5.2,0.5 -1.6,-1.3 -1.8,-3.6 -0.5,-5.2 1.3,-1.6 3.6,-1.8 5.2,-0.5 1.6,1.3 1.8,3.6 0.5,5.2 z m -7.9,-30.6 c 1.3,-1.6 3.6,-1.8 5.2,-0.5 1.6,1.3 1.8,3.6 0.5,5.2 -1.3,1.6 -3.6,1.8 -5.2,0.5 -1.6,-1.3 -1.8,-3.7 -0.5,-5.2 z m -3.9,44.6 c -1.3,1.6 -3.6,1.8 -5.2,0.5 -1.6,-1.3 -1.8,-3.6 -0.5,-5.2 1.3,-1.6 3.6,-1.8 5.2,-0.5 1.6,1.4 1.8,3.7 0.5,5.2 z M 324.7,180 c -1.3,1.6 -3.6,1.8 -5.2,0.5 -1.6,-1.3 -1.8,-3.6 -0.5,-5.2 1.3,-1.6 3.6,-1.8 5.2,-0.5 1.6,1.3 1.8,3.6 0.5,5.2 z m -7.9,-30.6 c 1.3,-1.6 3.6,-1.8 5.2,-0.5 1.6,1.3 1.8,3.6 0.5,5.2 -1.3,1.6 -3.6,1.8 -5.2,0.5 -1.6,-1.3 -1.8,-3.7 -0.5,-5.2 z m -3.9,44.6 c -1.3,1.6 -3.6,1.8 -5.2,0.5 -1.6,-1.3 -1.8,-3.6 -0.5,-5.2 1.3,-1.6 3.6,-1.8 5.2,-0.5 1.6,1.4 1.8,3.7 0.5,5.2 z M 305,163.5 c 1.3,-1.6 3.6,-1.8 5.2,-0.5 1.6,1.3 1.8,3.6 0.5,5.2 -1.3,1.6 -3.6,1.8 -5.2,0.5 -1.6,-1.4 -1.8,-3.7 -0.5,-5.2 z m -3.9,44.6 c -1.3,1.6 -3.6,1.8 -5.2,0.5 -1.6,-1.3 -1.8,-3.6 -0.5,-5.2 1.3,-1.6 3.6,-1.8 5.2,-0.5 1.6,1.3 1.8,3.6 0.5,5.2 z m -2.3,-25.9 c -1.3,1.6 -3.6,1.8 -5.2,0.5 -1.6,-1.3 -1.8,-3.6 -0.5,-5.2 1.3,-1.6 3.6,-1.8 5.2,-0.5 1.6,1.4 1.8,3.7 0.5,5.2 z m -7.9,-30.5 c 1.3,-1.6 3.6,-1.8 5.2,-0.5 1.6,1.3 1.8,3.6 0.5,5.2 -1.3,1.6 -3.6,1.8 -5.2,0.5 -1.6,-1.4 -1.8,-3.7 -0.5,-5.2 z m -3.9,44.6 c -1.3,1.6 -3.6,1.8 -5.2,0.5 -1.6,-1.3 -1.8,-3.6 -0.5,-5.2 1.3,-1.6 3.6,-1.8 5.2,-0.5 1.6,1.3 1.8,3.6 0.5,5.2 z m -7.9,-30.6 c 1.3,-1.6 3.6,-1.8 5.2,-0.5 1.6,1.3 1.8,3.6 0.5,5.2 -1.3,1.6 -3.6,1.8 -5.2,0.5 -1.6,-1.3 -1.8,-3.6 -0.5,-5.2 z"
       id="path3957"
       inkscape:connector-curvature="0"
       style="fill:#e9888b" /><path
       d="m 446.5,235.7 c -3.2,-9.2 -13.4,-14.1 -22.6,-10.8 l -263.4,92.4 c 0,0 -0.1,0.2 -0.2,0.5 l 90,90.9 71,-25.1 82.9,-29.3 46.6,-47.1 -0.3,-0.2 c -1.8,-0.9 -2.6,-3.1 -1.7,-4.9 0.9,-1.8 3.1,-2.6 4.9,-1.7 0.8,0.4 1.5,1.2 1.9,2 l 10.7,-10.9 0.1,0.2 -19.9,-56 z m -252.1,92.8 c -0.9,1.8 -3.1,2.6 -4.9,1.7 -1.8,-0.9 -2.6,-3.1 -1.7,-4.9 0.9,-1.8 3.1,-2.6 4.9,-1.7 1.8,0.9 2.6,3 1.7,4.9 z M 203,353 c -0.9,1.8 -3.1,2.6 -4.9,1.7 -1.8,-0.9 -2.6,-3.1 -1.7,-4.9 0.9,-1.8 3.1,-2.6 4.9,-1.7 1.8,0.8 2.6,3 1.7,4.9 z m 228.5,-99.8 c 0.9,-1.8 3.1,-2.6 4.9,-1.7 1.8,0.9 2.6,3.1 1.7,4.9 -0.9,1.8 -3.1,2.6 -4.9,1.7 -1.8,-0.9 -2.6,-3 -1.7,-4.9 z m -7.9,16.6 c 0.9,-1.8 3.1,-2.6 4.9,-1.7 1.8,0.9 2.6,3.1 1.7,4.9 -0.9,1.8 -3.1,2.6 -4.9,1.7 -1.8,-0.9 -2.6,-3.1 -1.7,-4.9 z M 415,245.3 c 0.9,-1.8 3.1,-2.6 4.9,-1.7 1.8,0.9 2.6,3.1 1.7,4.9 -0.9,1.8 -3.1,2.6 -4.9,1.7 -1.8,-0.9 -2.6,-3.1 -1.7,-4.9 z m -8,16.5 c 0.9,-1.8 3.1,-2.6 4.9,-1.7 1.8,0.9 2.6,3.1 1.7,4.9 -0.9,1.8 -3.1,2.6 -4.9,1.7 -1.8,-0.8 -2.5,-3 -1.7,-4.9 z m -7.9,16.6 c 0.9,-1.8 3.1,-2.6 4.9,-1.7 1.8,0.9 2.6,3.1 1.7,4.9 -0.9,1.8 -3.1,2.6 -4.9,1.7 -1.8,-0.9 -2.6,-3.1 -1.7,-4.9 z m -8.6,-24.5 c 0.9,-1.8 3.1,-2.6 4.9,-1.7 1.8,0.9 2.6,3.1 1.7,4.9 -0.9,1.8 -3.1,2.6 -4.9,1.7 -1.8,-0.9 -2.6,-3.1 -1.7,-4.9 z m -7.9,16.6 c 0.9,-1.8 3.1,-2.6 4.9,-1.7 1.8,0.9 2.6,3.1 1.7,4.9 -0.9,1.8 -3.1,2.6 -4.9,1.7 -1.9,-0.9 -2.6,-3.1 -1.7,-4.9 z m -8,16.5 c 0.9,-1.8 3.1,-2.6 4.9,-1.7 1.8,0.9 2.6,3.1 1.7,4.9 -0.9,1.8 -3.1,2.6 -4.9,1.7 -1.8,-0.9 -2.6,-3.1 -1.7,-4.9 z M 366,262.5 c 0.9,-1.8 3.1,-2.6 4.9,-1.7 1.8,0.9 2.6,3.1 1.7,4.9 -0.9,1.8 -3.1,2.6 -4.9,1.7 -1.8,-0.8 -2.6,-3 -1.7,-4.9 z m -17.9,11.8 c -0.9,1.8 -3.1,2.6 -4.9,1.7 -1.8,-0.9 -2.6,-3.1 -1.7,-4.9 0.9,-1.8 3.1,-2.6 4.9,-1.7 1.8,0.9 2.6,3.1 1.7,4.9 z m 8.7,24.5 c -0.9,1.8 -3.1,2.6 -4.9,1.7 -1.8,-0.9 -2.6,-3.1 -1.7,-4.9 0.9,-1.8 3.1,-2.6 4.9,-1.7 1.8,0.9 2.5,3.1 1.7,4.9 z m 1.3,-19.7 c 0.9,-1.8 3.1,-2.6 4.9,-1.7 1.8,0.9 2.6,3.1 1.7,4.9 -0.9,1.8 -3.1,2.6 -4.9,1.7 -1.8,-0.9 -2.6,-3.1 -1.7,-4.9 z m 7.3,44.2 c -0.9,1.8 -3.1,2.6 -4.9,1.7 -1.8,-0.9 -2.6,-3.1 -1.7,-4.9 0.9,-1.8 3.1,-2.6 4.9,-1.7 1.8,0.9 2.6,3.1 1.7,4.9 z m 1.3,-19.7 c 0.9,-1.8 3.1,-2.6 4.9,-1.7 1.8,0.9 2.6,3.1 1.7,4.9 -0.9,1.8 -3.1,2.6 -4.9,1.7 -1.8,-0.9 -2.6,-3.1 -1.7,-4.9 z m 7.3,44.2 c -0.9,1.8 -3.1,2.6 -4.9,1.7 -1.8,-0.9 -2.6,-3.1 -1.7,-4.9 0.9,-1.8 3.1,-2.6 4.9,-1.7 1.8,0.9 2.6,3 1.7,4.9 z m 7.9,-16.6 c -0.9,1.8 -3.1,2.6 -4.9,1.7 -1.8,-0.9 -2.6,-3.1 -1.7,-4.9 0.9,-1.8 3.1,-2.6 4.9,-1.7 1.8,0.9 2.6,3.1 1.7,4.9 z m 8,-16.5 c -0.9,1.8 -3.1,2.6 -4.9,1.7 -1.8,-0.9 -2.6,-3.1 -1.7,-4.9 0.9,-1.8 3.1,-2.6 4.9,-1.7 1.8,0.9 2.5,3 1.7,4.9 z m 1.3,-19.7 c 0.9,-1.8 3.1,-2.6 4.9,-1.7 1.8,0.9 2.6,3.1 1.7,4.9 -0.9,1.8 -3.1,2.6 -4.9,1.7 -1.8,-0.9 -2.6,-3.1 -1.7,-4.9 z m 7.3,44.2 c -0.9,1.8 -3.1,2.6 -4.9,1.7 -1.8,-0.9 -2.6,-3.1 -1.7,-4.9 0.9,-1.8 3.1,-2.6 4.9,-1.7 1.8,0.8 2.6,3 1.7,4.9 z m 7.9,-16.6 c -0.9,1.8 -3.1,2.6 -4.9,1.7 -1.8,-0.9 -2.6,-3.1 -1.7,-4.9 0.9,-1.8 3.1,-2.6 4.9,-1.7 1.8,0.9 2.6,3.1 1.7,4.9 z m 7.9,-16.5 c -0.9,1.8 -3.1,2.6 -4.9,1.7 -1.8,-0.9 -2.6,-3.1 -1.7,-4.9 0.9,-1.8 3.1,-2.6 4.9,-1.7 1.8,0.8 2.6,3 1.7,4.9 z m 1.4,-19.8 c 0.9,-1.8 3.1,-2.6 4.9,-1.7 1.8,0.9 2.6,3.1 1.7,4.9 -0.9,1.8 -3.1,2.6 -4.9,1.7 -1.9,-0.9 -2.6,-3 -1.7,-4.9 z m 7.3,44.2 c -0.9,1.8 -3.1,2.6 -4.9,1.7 -1.8,-0.9 -2.6,-3.1 -1.7,-4.9 0.9,-1.8 3.1,-2.6 4.9,-1.7 1.8,0.9 2.5,3.1 1.7,4.9 z m 7.9,-16.5 c -0.9,1.8 -3.1,2.6 -4.9,1.7 -1.8,-0.9 -2.6,-3.1 -1.7,-4.9 0.9,-1.8 3.1,-2.6 4.9,-1.7 1.8,0.9 2.6,3.1 1.7,4.9 z m 7.9,-16.6 c -0.9,1.8 -3.1,2.6 -4.9,1.7 -1.8,-0.9 -2.6,-3.1 -1.7,-4.9 0.9,-1.8 3.1,-2.6 4.9,-1.7 1.8,0.9 2.6,3.1 1.7,4.9 z m 8,-16.5 c -0.9,1.8 -3.1,2.6 -4.9,1.7 -1.8,-0.9 -2.6,-3.1 -1.7,-4.9 0.9,-1.8 3.1,-2.6 4.9,-1.7 1.8,0.9 2.5,3.1 1.7,4.9 z"
       id="path3959"
       inkscape:connector-curvature="0"
       style="fill:#e9888b" /><path
       d="m 160.2,318 c 0,-0.1 0,-0.1 0.1,-0.1 l 0,0 c -0.1,0 -0.1,0.1 -0.1,0.1 z"
       id="path3961"
       inkscape:connector-curvature="0"
       style="fill:#e9888b" /><path
       d="m 160.2,318 c 0,0 0,0.1 0,0 0,0.1 0,0 0,0 z"
       id="path3963"
       inkscape:connector-curvature="0"
       style="fill:#e9888b" /><path
       d="m 160.2,318.1 c -0.1,0.1 -0.1,0.3 -0.2,0.5 0.1,-0.2 0.1,-0.4 0.2,-0.5 z"
       id="path3965"
       inkscape:connector-curvature="0"
       style="fill:#e9888b" /></g><path
     d="m 61.4,186.9484 c -0.1,-0.1 -0.1,-0.2 -0.2,-0.3 0.1,0.1 0.1,0.2 0.2,0.3 z"
     id="path3967"
     inkscape:connector-curvature="0"
     style="fill:#f4c4c5" /><path
     d="m 60.1,182.1484 c 0,-0.1 0,-0.2 0,-0.3 0,0.1 0,0.2 0,0.3 z"
     id="path3969"
     inkscape:connector-curvature="0"
     style="fill:#f4c4c5" /><path
     d="m 60.2,183.5484 c 0,0 0,0 0,0 0,0 0,0 0,0 z"
     id="path3971"
     inkscape:connector-curvature="0"
     style="fill:#f4c4c5" /><path
     d="m 60.6,185.2484 c 0,-0.1 -0.1,-0.2 -0.1,-0.3 0,0.1 0,0.2 0.1,0.3 z"
     id="path3973"
     inkscape:connector-curvature="0"
     style="fill:#f4c4c5" /><path
     d="m 60.4,179.4484 c 0,0 0.1,-0.1 0,0 0.1,-0.1 0,0 0,0 z"
     id="path3975"
     inkscape:connector-curvature="0"
     style="fill:#f4c4c5" /><path
     d="m 60.7,178.4484 c 0,0 0,-0.1 0,-0.1 0.1,0 0.1,0 0,0.1 z"
     id="path3977"
     inkscape:connector-curvature="0"
     style="fill:#f4c4c5" /><path
     d="m 60.2,180.6484 c 0,-0.1 0,-0.2 0,-0.3 0,0.2 0,0.2 0,0.3 z"
     id="path3979"
     inkscape:connector-curvature="0"
     style="fill:#f4c4c5" /><path
     d="m 351.6,167.0484 4.7,-4.8 c 0,0 0,0 0,0 l -4.7,4.8 0,0 z"
     id="path3981"
     inkscape:connector-curvature="0"
     style="fill:#f4c4c5" /><polygon
     points="404.2,354.4 404.6,354.2 404.2,354.4 "
     id="polygon3983"
     style="fill:#f4c4c5"
     transform="translate(-99.2,-140.2516)" /><g
     id="g3985"
     transform="translate(-99.2,-140.2516)"><path
       d="m 373.4,148.7 c -5.3,-2.5 -16,-7.8 -22.6,-8.1 -6.6,-0.3 -71.8,-0.5 -81.2,-0.2 -8.5,0.2 -8.5,4.8 -8.4,5.7 21.1,0 67,0 83.2,0 0.7,-0.2 1.5,-0.3 2.3,0 2.2,0 3.5,0 3.5,0 l 28,11.7 0,-0.3 c 0,-0.1 0.5,-6.2 -4.8,-8.8 z"
       id="path3987"
       inkscape:connector-curvature="0"
       style="fill:#f4c4c5" /><path
       d="m 160,318.5 c 0,0 0,0.1 0,0.1 -0.1,0.3 -0.2,0.6 -0.3,0.9 0,0 0,0.1 0,0.1 -0.1,0.3 -0.1,0.6 -0.2,1 0,0.1 0,0.2 0,0.3 -0.1,0.4 -0.1,0.8 -0.1,1.2 0,0.1 0,0.2 0,0.3 0,0.4 0,0.9 0.1,1.3 0,0 0,0.1 0,0.1 0.1,0.4 0.2,0.9 0.3,1.3 0,0.1 0.1,0.2 0.1,0.3 0.2,0.5 0.4,0.9 0.6,1.4 0.1,0.1 0.1,0.2 0.2,0.3 0.3,0.5 0.6,1 1,1.4 4.5,5.1 75,75.3 78.3,78.5 3.2,3.3 10.1,1.7 10.1,1.7 l 0.2,-0.1 -90,-90.9 c -0.1,0.3 -0.2,0.6 -0.3,0.8 z"
       id="path3989"
       inkscape:connector-curvature="0"
       style="fill:#f4c4c5" /><path
       d="m 466.3,291.8 -0.1,-0.2 -10.7,10.9 c 0,0 0,0 0,0 l -4.7,4.8 0,0 -46.6,47.1 0.4,-0.2 c 0,0 9,-2 14.4,-7.2 5.6,-5.3 41.7,-41.3 45.5,-45.5 3.9,-4.4 1.8,-9.7 1.8,-9.7 z"
       id="path3991"
       inkscape:connector-curvature="0"
       style="fill:#f4c4c5" /><path
       d="m 319.5,294.1 c -2.2,-6.3 -9.1,-9.5 -15.3,-7.3 l -73.6,25.9 c -6.3,2.2 -9.5,9.1 -7.3,15.3 l 18.1,51.3 c 2.2,6.3 9.1,9.5 15.3,7.3 l 73.6,-25.9 c 6.3,-2.2 9.5,-9.1 7.3,-15.3 l -18.1,-51.3 z"
       id="path3993"
       inkscape:connector-curvature="0"
       style="fill:#f4c4c5" /></g></svg>