<?xml version="1.0" encoding="UTF-8" standalone="no"?>
<!-- Generator: Adobe Illustrator 18.0.0, SVG Export Plug-In . SVG Version: 6.00 Build 0)  -->

<svg
   xmlns:dc="http://purl.org/dc/elements/1.1/"
   xmlns:cc="http://creativecommons.org/ns#"
   xmlns:rdf="http://www.w3.org/1999/02/22-rdf-syntax-ns#"
   xmlns:svg="http://www.w3.org/2000/svg"
   xmlns="http://www.w3.org/2000/svg"
   xmlns:sodipodi="http://sodipodi.sourceforge.net/DTD/sodipodi-0.dtd"
   xmlns:inkscape="http://www.inkscape.org/namespaces/inkscape"
   version="1.1"
   id="Ebene_1"
   x="0px"
   y="0px"
   viewBox="0 0 982 319.1484"
   enable-background="new 0 0 600 600"
   xml:space="preserve"
   inkscape:version="0.48.4 r9939"
   width="100%"
   height="100%"
   sodipodi:docname="reek.text.svg"><metadata
     id="metadata3363"><rdf:RDF><cc:Work
         rdf:about=""><dc:format>image/svg+xml</dc:format><dc:type
           rdf:resource="http://purl.org/dc/dcmitype/StillImage" /><dc:title></dc:title></cc:Work></rdf:RDF></metadata><defs
     id="defs3361" /><sodipodi:namedview
     pagecolor="#ffffff"
     bordercolor="#666666"
     borderopacity="1"
     objecttolerance="10"
     gridtolerance="10"
     guidetolerance="10"
     inkscape:pageopacity="0"
     inkscape:pageshadow="2"
     inkscape:window-width="1920"
     inkscape:window-height="1176"
     id="namedview3359"
     showgrid="false"
     inkscape:zoom="1.2126881"
     inkscape:cx="440.64837"
     inkscape:cy="120.77101"
     inkscape:window-x="0"
     inkscape:window-y="24"
     inkscape:window-maximized="1"
     inkscape:current-layer="Ebene_1"
     borderlayer="false"
     fit-margin-top="0"
     fit-margin-left="0"
     fit-margin-right="0"
     fit-margin-bottom="0" /><g
     id="g3449"
     transform="translate(-99.2,-140.2516)"><polygon
       id="polygon3203"
       points="350.2,146 250.4,146 156.5,185.1 99.2,256.2 300.3,459.4 300.3,339 256,238.3 350.2,146 "
       style="fill:#a41611" /><polygon
       id="polygon3205"
       points="300.3,459.4 501.3,256.2 444.1,185.1 350.2,146 256,238.3 300.3,339 "
       style="fill:#d41217" /><circle
       id="circle3207"
       r="3.7"
       cy="191.7"
       cx="310.10001"
       sodipodi:cx="310.10001"
       sodipodi:cy="191.7"
       sodipodi:rx="3.7"
       sodipodi:ry="3.7"
       style="fill:none"
       d="m 313.80001,191.7 c 0,2.04345 -1.65655,3.7 -3.7,3.7 -2.04346,0 -3.7,-1.65655 -3.7,-3.7 0,-2.04346 1.65654,-3.7 3.7,-3.7 2.04345,0 3.7,1.65654 3.7,3.7 z" /><circle
       id="circle3209"
       r="3.7"
       cy="205.7"
       cx="298.29999"
       sodipodi:cx="298.29999"
       sodipodi:cy="205.7"
       sodipodi:rx="3.7"
       sodipodi:ry="3.7"
       style="fill:none"
       d="m 301.99999,205.7 c 0,2.04345 -1.65655,3.7 -3.7,3.7 -2.04346,0 -3.7,-1.65655 -3.7,-3.7 0,-2.04346 1.65654,-3.7 3.7,-3.7 2.04345,0 3.7,1.65654 3.7,3.7 z" /><circle
       id="circle3211"
       r="3.7"
       cy="165.8"
       cx="307.79999"
       sodipodi:cx="307.79999"
       sodipodi:cy="165.8"
       sodipodi:rx="3.7"
       sodipodi:ry="3.7"
       style="fill:none"
       d="m 311.49999,165.8 c 0,2.04346 -1.65655,3.7 -3.7,3.7 -2.04346,0 -3.7,-1.65654 -3.7,-3.7 0,-2.04345 1.65654,-3.7 3.7,-3.7 2.04345,0 3.7,1.65655 3.7,3.7 z" /><circle
       id="circle3213"
       r="3.7"
       cy="151.8"
       cx="319.60001"
       sodipodi:cx="319.60001"
       sodipodi:cy="151.8"
       sodipodi:rx="3.7"
       sodipodi:ry="3.7"
       style="fill:none"
       d="m 323.30001,151.8 c 0,2.04346 -1.65655,3.7 -3.7,3.7 -2.04346,0 -3.7,-1.65654 -3.7,-3.7 0,-2.04345 1.65654,-3.7 3.7,-3.7 2.04345,0 3.7,1.65655 3.7,3.7 z" /><circle
       id="circle3215"
       r="3.7"
       cy="193.89999"
       cx="284.20001"
       sodipodi:cx="284.20001"
       sodipodi:cy="193.89999"
       sodipodi:rx="3.7"
       sodipodi:ry="3.7"
       style="fill:none"
       d="m 287.90001,193.89999 c 0,2.04346 -1.65654,3.7 -3.7,3.7 -2.04345,0 -3.7,-1.65654 -3.7,-3.7 0,-2.04345 1.65655,-3.7 3.7,-3.7 2.04346,0 3.7,1.65655 3.7,3.7 z" /><circle
       id="circle3217"
       r="3.7"
       cy="177.60001"
       cx="321.89999"
       sodipodi:cx="321.89999"
       sodipodi:cy="177.60001"
       sodipodi:rx="3.7"
       sodipodi:ry="3.7"
       style="fill:none"
       d="m 325.59999,177.60001 c 0,2.04345 -1.65654,3.7 -3.7,3.7 -2.04345,0 -3.7,-1.65655 -3.7,-3.7 0,-2.04346 1.65655,-3.7 3.7,-3.7 2.04346,0 3.7,1.65654 3.7,3.7 z" /><circle
       id="circle3219"
       r="3.7"
       cy="168.10001"
       cx="281.89999"
       sodipodi:cx="281.89999"
       sodipodi:cy="168.10001"
       sodipodi:rx="3.7"
       sodipodi:ry="3.7"
       style="fill:none"
       d="m 285.59999,168.10001 c 0,2.04345 -1.65654,3.7 -3.7,3.7 -2.04345,0 -3.7,-1.65655 -3.7,-3.7 0,-2.04346 1.65655,-3.7 3.7,-3.7 2.04346,0 3.7,1.65654 3.7,3.7 z" /><circle
       id="circle3221"
       r="3.7"
       cy="154"
       cx="293.70001"
       sodipodi:cx="293.70001"
       sodipodi:cy="154"
       sodipodi:rx="3.7"
       sodipodi:ry="3.7"
       style="fill:none"
       d="m 297.40001,154 c 0,2.04345 -1.65654,3.7 -3.7,3.7 -2.04345,0 -3.7,-1.65655 -3.7,-3.7 0,-2.04345 1.65655,-3.7 3.7,-3.7 2.04346,0 3.7,1.65655 3.7,3.7 z" /><circle
       id="circle3223"
       r="3.7"
       cy="179.89999"
       cx="296"
       sodipodi:cx="296"
       sodipodi:cy="179.89999"
       sodipodi:rx="3.7"
       sodipodi:ry="3.7"
       style="fill:none"
       d="m 299.7,179.89999 c 0,2.04346 -1.65655,3.7 -3.7,3.7 -2.04345,0 -3.7,-1.65654 -3.7,-3.7 0,-2.04345 1.65655,-3.7 3.7,-3.7 2.04345,0 3.7,1.65655 3.7,3.7 z" /><path
       id="path3225"
       d="m 342.6,147.1 c -1.3,1.6 -1.1,3.9 0.5,5.2 1.6,1.3 3.9,1.1 5.2,-0.5 1.3,-1.6 1.1,-3.9 -0.5,-5.2 -0.4,-0.3 -0.7,-0.5 -1.2,-0.6 -0.7,0 -1.4,0 -2.3,0 -0.6,0.2 -1.2,0.6 -1.7,1.1 z"
       inkscape:connector-curvature="0"
       style="fill:none" /><circle
       id="circle3227"
       r="3.7"
       cy="161.3"
       cx="359.5"
       sodipodi:cx="359.5"
       sodipodi:cy="161.3"
       sodipodi:rx="3.7"
       sodipodi:ry="3.7"
       style="fill:none"
       d="m 363.2,161.3 c 0,2.04346 -1.65655,3.7 -3.7,3.7 -2.04345,0 -3.7,-1.65654 -3.7,-3.7 0,-2.04345 1.65655,-3.7 3.7,-3.7 2.04345,0 3.7,1.65655 3.7,3.7 z" /><circle
       id="circle3229"
       r="3.7"
       cy="187.10001"
       cx="361.79999"
       sodipodi:cx="361.79999"
       sodipodi:cy="187.10001"
       sodipodi:rx="3.7"
       sodipodi:ry="3.7"
       style="fill:none"
       d="m 365.49999,187.10001 c 0,2.04345 -1.65655,3.7 -3.7,3.7 -2.04346,0 -3.7,-1.65655 -3.7,-3.7 0,-2.04346 1.65654,-3.7 3.7,-3.7 2.04345,0 3.7,1.65654 3.7,3.7 z" /><circle
       id="circle3231"
       r="3.7"
       cy="201.2"
       cx="350"
       sodipodi:cx="350"
       sodipodi:cy="201.2"
       sodipodi:rx="3.7"
       sodipodi:ry="3.7"
       style="fill:none"
       d="m 353.7,201.2 c 0,2.04345 -1.65655,3.7 -3.7,3.7 -2.04345,0 -3.7,-1.65655 -3.7,-3.7 0,-2.04346 1.65655,-3.7 3.7,-3.7 2.04345,0 3.7,1.65654 3.7,3.7 z" /><circle
       id="circle3233"
       r="3.7"
       cy="203.5"
       cx="324.10001"
       sodipodi:cx="324.10001"
       sodipodi:cy="203.5"
       sodipodi:rx="3.7"
       sodipodi:ry="3.7"
       style="fill:none"
       d="m 327.80001,203.5 c 0,2.04345 -1.65655,3.7 -3.7,3.7 -2.04346,0 -3.7,-1.65655 -3.7,-3.7 0,-2.04345 1.65654,-3.7 3.7,-3.7 2.04345,0 3.7,1.65655 3.7,3.7 z" /><circle
       id="circle3235"
       r="3.7"
       cy="163.5"
       cx="333.70001"
       sodipodi:cx="333.70001"
       sodipodi:cy="163.5"
       sodipodi:rx="3.7"
       sodipodi:ry="3.7"
       style="fill:none"
       d="m 337.40001,163.5 c 0,2.04345 -1.65654,3.7 -3.7,3.7 -2.04345,0 -3.7,-1.65655 -3.7,-3.7 0,-2.04345 1.65655,-3.7 3.7,-3.7 2.04346,0 3.7,1.65655 3.7,3.7 z" /><circle
       id="circle3237"
       r="3.7"
       cy="189.39999"
       cx="335.89999"
       sodipodi:cx="335.89999"
       sodipodi:cy="189.39999"
       sodipodi:rx="3.7"
       sodipodi:ry="3.7"
       style="fill:none"
       d="m 339.59999,189.39999 c 0,2.04346 -1.65654,3.7 -3.7,3.7 -2.04345,0 -3.7,-1.65654 -3.7,-3.7 0,-2.04345 1.65655,-3.7 3.7,-3.7 2.04346,0 3.7,1.65655 3.7,3.7 z" /><circle
       id="circle3239"
       r="3.7"
       cy="175.3"
       cx="347.70001"
       sodipodi:cx="347.70001"
       sodipodi:cy="175.3"
       sodipodi:rx="3.7"
       sodipodi:ry="3.7"
       style="fill:none"
       d="m 351.40001,175.3 c 0,2.04346 -1.65654,3.7 -3.7,3.7 -2.04345,0 -3.7,-1.65654 -3.7,-3.7 0,-2.04345 1.65655,-3.7 3.7,-3.7 2.04346,0 3.7,1.65655 3.7,3.7 z" /><path
       id="path3241"
       d="m 344.4,146 c 0.8,0 1.6,0 2.3,0 -0.8,-0.2 -1.6,-0.2 -2.3,0 z"
       inkscape:connector-curvature="0"
       style="fill:#d41217" /><circle
       id="circle3243"
       r="3.7"
       cy="312.39999"
       cx="427.60001"
       sodipodi:cx="427.60001"
       sodipodi:cy="312.39999"
       sodipodi:rx="3.7"
       sodipodi:ry="3.7"
       style="fill:none"
       d="m 431.30001,312.39999 c 0,2.04346 -1.65655,3.7 -3.7,3.7 -2.04346,0 -3.7,-1.65654 -3.7,-3.7 0,-2.04345 1.65654,-3.7 3.7,-3.7 2.04345,0 3.7,1.65655 3.7,3.7 z" /><circle
       id="circle3245"
       r="3.7"
       cy="254.8"
       cx="434.79999"
       sodipodi:cx="434.79999"
       sodipodi:cy="254.8"
       sodipodi:rx="3.7"
       sodipodi:ry="3.7"
       style="fill:none"
       d="m 438.49999,254.8 c 0,2.04346 -1.65655,3.7 -3.7,3.7 -2.04346,0 -3.7,-1.65654 -3.7,-3.7 0,-2.04345 1.65654,-3.7 3.7,-3.7 2.04345,0 3.7,1.65655 3.7,3.7 z" /><circle
       id="circle3247"
       r="3.7"
       cy="295.79999"
       cx="435.5"
       sodipodi:cx="435.5"
       sodipodi:cy="295.79999"
       sodipodi:rx="3.7"
       sodipodi:ry="3.7"
       style="fill:none"
       d="m 439.2,295.79999 c 0,2.04345 -1.65655,3.7 -3.7,3.7 -2.04345,0 -3.7,-1.65655 -3.7,-3.7 0,-2.04346 1.65655,-3.7 3.7,-3.7 2.04345,0 3.7,1.65654 3.7,3.7 z" /><circle
       id="circle3249"
       r="3.7"
       cy="279.29999"
       cx="443.39999"
       sodipodi:cx="443.39999"
       sodipodi:cy="279.29999"
       sodipodi:rx="3.7"
       sodipodi:ry="3.7"
       style="fill:none"
       d="m 447.09999,279.29999 c 0,2.04345 -1.65654,3.7 -3.7,3.7 -2.04345,0 -3.7,-1.65655 -3.7,-3.7 0,-2.04346 1.65655,-3.7 3.7,-3.7 2.04346,0 3.7,1.65654 3.7,3.7 z" /><circle
       id="circle3251"
       r="3.7"
       cy="271.39999"
       cx="426.89999"
       sodipodi:cx="426.89999"
       sodipodi:cy="271.39999"
       sodipodi:rx="3.7"
       sodipodi:ry="3.7"
       style="fill:none"
       d="m 430.59999,271.39999 c 0,2.04346 -1.65654,3.7 -3.7,3.7 -2.04345,0 -3.7,-1.65654 -3.7,-3.7 0,-2.04345 1.65655,-3.7 3.7,-3.7 2.04346,0 3.7,1.65655 3.7,3.7 z" /><circle
       id="circle3253"
       r="3.7"
       cy="263.39999"
       cx="410.29999"
       sodipodi:cx="410.29999"
       sodipodi:cy="263.39999"
       sodipodi:rx="3.7"
       sodipodi:ry="3.7"
       style="fill:none"
       d="m 413.99999,263.39999 c 0,2.04346 -1.65655,3.7 -3.7,3.7 -2.04346,0 -3.7,-1.65654 -3.7,-3.7 0,-2.04345 1.65654,-3.7 3.7,-3.7 2.04345,0 3.7,1.65655 3.7,3.7 z" /><circle
       id="circle3255"
       r="3.7"
       cy="296.5"
       cx="394.5"
       sodipodi:cx="394.5"
       sodipodi:cy="296.5"
       sodipodi:rx="3.7"
       sodipodi:ry="3.7"
       style="fill:none"
       d="m 398.2,296.5 c 0,2.04345 -1.65655,3.7 -3.7,3.7 -2.04345,0 -3.7,-1.65655 -3.7,-3.7 0,-2.04345 1.65655,-3.7 3.7,-3.7 2.04345,0 3.7,1.65655 3.7,3.7 z" /><circle
       id="circle3257"
       r="3.7"
       cy="246.89999"
       cx="418.29999"
       sodipodi:cx="418.29999"
       sodipodi:cy="246.89999"
       sodipodi:rx="3.7"
       sodipodi:ry="3.7"
       style="fill:none"
       d="m 421.99999,246.89999 c 0,2.04346 -1.65655,3.7 -3.7,3.7 -2.04346,0 -3.7,-1.65654 -3.7,-3.7 0,-2.04345 1.65654,-3.7 3.7,-3.7 2.04345,0 3.7,1.65655 3.7,3.7 z" /><circle
       id="circle3259"
       r="3.7"
       cy="287.89999"
       cx="419"
       sodipodi:cx="419"
       sodipodi:cy="287.89999"
       sodipodi:rx="3.7"
       sodipodi:ry="3.7"
       style="fill:none"
       d="m 422.7,287.89999 c 0,2.04346 -1.65655,3.7 -3.7,3.7 -2.04345,0 -3.7,-1.65654 -3.7,-3.7 0,-2.04345 1.65655,-3.7 3.7,-3.7 2.04345,0 3.7,1.65655 3.7,3.7 z" /><circle
       id="circle3261"
       r="3.7"
       cy="280"
       cx="402.39999"
       sodipodi:cx="402.39999"
       sodipodi:cy="280"
       sodipodi:rx="3.7"
       sodipodi:ry="3.7"
       style="fill:none"
       d="m 406.09999,280 c 0,2.04345 -1.65654,3.7 -3.7,3.7 -2.04345,0 -3.7,-1.65655 -3.7,-3.7 0,-2.04345 1.65655,-3.7 3.7,-3.7 2.04346,0 3.7,1.65655 3.7,3.7 z" /><circle
       id="circle3263"
       r="3.7"
       cy="328.89999"
       cx="419.70001"
       sodipodi:cx="419.70001"
       sodipodi:cy="328.89999"
       sodipodi:rx="3.7"
       sodipodi:ry="3.7"
       style="fill:none"
       d="m 423.40001,328.89999 c 0,2.04346 -1.65654,3.7 -3.7,3.7 -2.04345,0 -3.7,-1.65654 -3.7,-3.7 0,-2.04345 1.65655,-3.7 3.7,-3.7 2.04346,0 3.7,1.65655 3.7,3.7 z" /><circle
       id="circle3265"
       r="3.7"
       cy="313.10001"
       cx="386.60001"
       sodipodi:cx="386.60001"
       sodipodi:cy="313.10001"
       sodipodi:rx="3.7"
       sodipodi:ry="3.7"
       style="fill:none"
       d="m 390.30001,313.10001 c 0,2.04345 -1.65655,3.7 -3.7,3.7 -2.04346,0 -3.7,-1.65655 -3.7,-3.7 0,-2.04346 1.65654,-3.7 3.7,-3.7 2.04345,0 3.7,1.65654 3.7,3.7 z" /><circle
       id="circle3267"
       r="3.7"
       cy="329.60001"
       cx="378.60001"
       sodipodi:cx="378.60001"
       sodipodi:cy="329.60001"
       sodipodi:rx="3.7"
       sodipodi:ry="3.7"
       style="fill:none"
       d="m 382.30001,329.60001 c 0,2.04345 -1.65655,3.7 -3.7,3.7 -2.04346,0 -3.7,-1.65655 -3.7,-3.7 0,-2.04346 1.65654,-3.7 3.7,-3.7 2.04345,0 3.7,1.65654 3.7,3.7 z" /><circle
       id="circle3269"
       r="3.7"
       cy="321.70001"
       cx="362.10001"
       sodipodi:cx="362.10001"
       sodipodi:cy="321.70001"
       sodipodi:rx="3.7"
       sodipodi:ry="3.7"
       style="fill:none"
       d="m 365.80001,321.70001 c 0,2.04346 -1.65655,3.7 -3.7,3.7 -2.04346,0 -3.7,-1.65654 -3.7,-3.7 0,-2.04345 1.65654,-3.7 3.7,-3.7 2.04345,0 3.7,1.65655 3.7,3.7 z" /><circle
       id="circle3271"
       r="3.7"
       cy="346.20001"
       cx="370.70001"
       sodipodi:cx="370.70001"
       sodipodi:cy="346.20001"
       sodipodi:rx="3.7"
       sodipodi:ry="3.7"
       style="fill:none"
       d="m 374.40001,346.20001 c 0,2.04346 -1.65654,3.7 -3.7,3.7 -2.04345,0 -3.7,-1.65654 -3.7,-3.7 0,-2.04345 1.65655,-3.7 3.7,-3.7 2.04346,0 3.7,1.65655 3.7,3.7 z" /><circle
       id="circle3273"
       r="3.7"
       cy="337.60001"
       cx="395.20001"
       sodipodi:cx="395.20001"
       sodipodi:cy="337.60001"
       sodipodi:rx="3.7"
       sodipodi:ry="3.7"
       style="fill:none"
       d="m 398.90001,337.60001 c 0,2.04345 -1.65654,3.7 -3.7,3.7 -2.04345,0 -3.7,-1.65655 -3.7,-3.7 0,-2.04346 1.65655,-3.7 3.7,-3.7 2.04346,0 3.7,1.65654 3.7,3.7 z" /><circle
       id="circle3275"
       r="3.7"
       cy="304.5"
       cx="411"
       sodipodi:cx="411"
       sodipodi:cy="304.5"
       sodipodi:rx="3.7"
       sodipodi:ry="3.7"
       style="fill:none"
       d="m 414.7,304.5 c 0,2.04345 -1.65655,3.7 -3.7,3.7 -2.04345,0 -3.7,-1.65655 -3.7,-3.7 0,-2.04345 1.65655,-3.7 3.7,-3.7 2.04345,0 3.7,1.65655 3.7,3.7 z" /><circle
       id="circle3277"
       r="3.7"
       cy="321"
       cx="403.10001"
       sodipodi:cx="403.10001"
       sodipodi:cy="321"
       sodipodi:rx="3.7"
       sodipodi:ry="3.7"
       style="fill:none"
       d="m 406.80001,321 c 0,2.04345 -1.65655,3.7 -3.7,3.7 -2.04346,0 -3.7,-1.65655 -3.7,-3.7 0,-2.04345 1.65654,-3.7 3.7,-3.7 2.04345,0 3.7,1.65655 3.7,3.7 z" /><circle
       id="circle3279"
       r="3.7"
       cy="272.70001"
       cx="344.79999"
       sodipodi:cx="344.79999"
       sodipodi:cy="272.70001"
       sodipodi:rx="3.7"
       sodipodi:ry="3.7"
       style="fill:none"
       d="m 348.49999,272.70001 c 0,2.04346 -1.65655,3.7 -3.7,3.7 -2.04346,0 -3.7,-1.65654 -3.7,-3.7 0,-2.04345 1.65654,-3.7 3.7,-3.7 2.04345,0 3.7,1.65655 3.7,3.7 z" /><circle
       id="circle3281"
       r="3.7"
       cy="351.39999"
       cx="199.7"
       sodipodi:cx="199.7"
       sodipodi:cy="351.39999"
       sodipodi:rx="3.7"
       sodipodi:ry="3.7"
       style="fill:none"
       d="m 203.4,351.39999 c 0,2.04346 -1.65655,3.7 -3.7,3.7 -2.04346,0 -3.7,-1.65654 -3.7,-3.7 0,-2.04345 1.65654,-3.7 3.7,-3.7 2.04345,0 3.7,1.65655 3.7,3.7 z" /><path
       id="path3283"
       d="m 453.7,300.5 c -1.8,-0.9 -4,-0.1 -4.9,1.7 -0.9,1.8 -0.1,4 1.7,4.9 l 0.3,0.2 4.7,-4.8 c -0.3,-0.8 -1,-1.6 -1.8,-2 z"
       inkscape:connector-curvature="0"
       style="fill:none" /><circle
       id="circle3285"
       r="3.7"
       cy="326.89999"
       cx="191.10001"
       sodipodi:cx="191.10001"
       sodipodi:cy="326.89999"
       sodipodi:rx="3.7"
       sodipodi:ry="3.7"
       style="fill:none"
       d="m 194.80001,326.89999 c 0,2.04346 -1.65655,3.7 -3.7,3.7 -2.04346,0 -3.7,-1.65654 -3.7,-3.7 0,-2.04345 1.65654,-3.7 3.7,-3.7 2.04345,0 3.7,1.65655 3.7,3.7 z" /><polygon
       id="polygon3287"
       points="404.2,354.4 404.2,354.4 321.3,383.7 "
       style="fill:none" /><circle
       id="circle3289"
       r="3.7"
       cy="255.5"
       cx="393.79999"
       sodipodi:cx="393.79999"
       sodipodi:cy="255.5"
       sodipodi:rx="3.7"
       sodipodi:ry="3.7"
       style="fill:none"
       d="m 397.49999,255.5 c 0,2.04345 -1.65655,3.7 -3.7,3.7 -2.04346,0 -3.7,-1.65655 -3.7,-3.7 0,-2.04345 1.65654,-3.7 3.7,-3.7 2.04345,0 3.7,1.65655 3.7,3.7 z" /><circle
       id="circle3291"
       r="3.7"
       cy="297.20001"
       cx="353.39999"
       sodipodi:cx="353.39999"
       sodipodi:cy="297.20001"
       sodipodi:rx="3.7"
       sodipodi:ry="3.7"
       style="fill:none"
       d="m 357.09999,297.20001 c 0,2.04346 -1.65654,3.7 -3.7,3.7 -2.04345,0 -3.7,-1.65654 -3.7,-3.7 0,-2.04345 1.65655,-3.7 3.7,-3.7 2.04346,0 3.7,1.65655 3.7,3.7 z" /><circle
       id="circle3293"
       r="3.7"
       cy="280.70001"
       cx="361.39999"
       sodipodi:cx="361.39999"
       sodipodi:cy="280.70001"
       sodipodi:rx="3.7"
       sodipodi:ry="3.7"
       style="fill:none"
       d="m 365.09999,280.70001 c 0,2.04346 -1.65654,3.7 -3.7,3.7 -2.04345,0 -3.7,-1.65654 -3.7,-3.7 0,-2.04345 1.65655,-3.7 3.7,-3.7 2.04346,0 3.7,1.65655 3.7,3.7 z" /><circle
       id="circle3295"
       r="3.7"
       cy="288.60001"
       cx="377.89999"
       sodipodi:cx="377.89999"
       sodipodi:cy="288.60001"
       sodipodi:rx="3.7"
       sodipodi:ry="3.7"
       style="fill:none"
       d="m 381.59999,288.60001 c 0,2.04345 -1.65654,3.7 -3.7,3.7 -2.04345,0 -3.7,-1.65655 -3.7,-3.7 0,-2.04346 1.65655,-3.7 3.7,-3.7 2.04346,0 3.7,1.65654 3.7,3.7 z" /><circle
       id="circle3297"
       r="3.7"
       cy="272.10001"
       cx="385.89999"
       sodipodi:cx="385.89999"
       sodipodi:cy="272.10001"
       sodipodi:rx="3.7"
       sodipodi:ry="3.7"
       style="fill:none"
       d="m 389.59999,272.10001 c 0,2.04345 -1.65654,3.7 -3.7,3.7 -2.04345,0 -3.7,-1.65655 -3.7,-3.7 0,-2.04346 1.65655,-3.7 3.7,-3.7 2.04346,0 3.7,1.65654 3.7,3.7 z" /><circle
       id="circle3299"
       r="3.7"
       cy="305.20001"
       cx="370"
       sodipodi:cx="370"
       sodipodi:cy="305.20001"
       sodipodi:rx="3.7"
       sodipodi:ry="3.7"
       style="fill:none"
       d="m 373.7,305.20001 c 0,2.04346 -1.65655,3.7 -3.7,3.7 -2.04345,0 -3.7,-1.65654 -3.7,-3.7 0,-2.04345 1.65655,-3.7 3.7,-3.7 2.04345,0 3.7,1.65655 3.7,3.7 z" /><circle
       id="circle3301"
       r="3.7"
       cy="264.10001"
       cx="369.29999"
       sodipodi:cx="369.29999"
       sodipodi:cy="264.10001"
       sodipodi:rx="3.7"
       sodipodi:ry="3.7"
       style="fill:none"
       d="m 372.99999,264.10001 c 0,2.04345 -1.65655,3.7 -3.7,3.7 -2.04346,0 -3.7,-1.65655 -3.7,-3.7 0,-2.04346 1.65654,-3.7 3.7,-3.7 2.04345,0 3.7,1.65654 3.7,3.7 z" /><path
       id="path3303"
       d="m 161.6,328.6 c -0.4,-0.5 -0.8,-1 -1,-1.4 0.3,0.5 0.6,0.9 1,1.4 z"
       inkscape:connector-curvature="0"
       style="fill:#f4c4c5" /><path
       id="path3305"
       d="m 160.4,326.9 c -0.3,-0.5 -0.5,-0.9 -0.6,-1.4 0.1,0.5 0.4,0.9 0.6,1.4 z"
       inkscape:connector-curvature="0"
       style="fill:#f4c4c5" /><path
       id="path3307"
       d="m 159.4,320.7 c 0.1,-0.4 0.1,-0.7 0.2,-1 0,0.3 -0.1,0.6 -0.2,1 z"
       inkscape:connector-curvature="0"
       style="fill:#f4c4c5" /><path
       id="path3309"
       d="m 159.7,319.6 c 0.1,-0.3 0.2,-0.6 0.3,-0.9 -0.2,0.3 -0.2,0.6 -0.3,0.9 z"
       inkscape:connector-curvature="0"
       style="fill:#f4c4c5" /><path
       id="path3311"
       d="m 159.3,322.1 c 0,-0.4 0,-0.8 0.1,-1.2 -0.1,0.4 -0.1,0.8 -0.1,1.2 z"
       inkscape:connector-curvature="0"
       style="fill:#f4c4c5" /><path
       id="path3313"
       d="m 159.4,323.8 c -0.1,-0.5 -0.1,-0.9 -0.1,-1.3 0,0.4 0,0.8 0.1,1.3 z"
       inkscape:connector-curvature="0"
       style="fill:#f4c4c5" /><path
       id="path3315"
       d="m 159.7,325.2 c -0.1,-0.5 -0.2,-0.9 -0.3,-1.3 0,0.4 0.2,0.8 0.3,1.3 z"
       inkscape:connector-curvature="0"
       style="fill:#f4c4c5" /><polygon
       id="polygon3317"
       points="250.2,408.8 250.2,408.8 250,408.8 "
       style="fill:#f4c4c5" /><g
       id="g3319"><path
         id="path3321"
         d="m 266.6,208.2 c 0.9,9.7 9.4,16.9 19.2,16.1 l 79.8,-7 c 9.7,-0.9 16.9,-9.4 16.1,-19.2 l -3.4,-40.4 -28,-11.7 c 0,0 -1.3,0 -3.5,0 0.4,0.1 0.8,0.3 1.2,0.6 1.6,1.3 1.8,3.6 0.5,5.2 -1.3,1.6 -3.6,1.8 -5.2,0.5 -1.6,-1.3 -1.8,-3.6 -0.5,-5.2 0.5,-0.6 1.1,-0.9 1.7,-1.1 -16.2,0 -62.1,0 -83.2,0 0,0.1 0,0.1 0,0.1 l 5.3,62.1 z m 98,-18.7 c -1.3,1.6 -3.6,1.8 -5.2,0.5 -1.6,-1.3 -1.8,-3.6 -0.5,-5.2 1.3,-1.6 3.6,-1.8 5.2,-0.5 1.6,1.3 1.8,3.6 0.5,5.2 z m -7.9,-30.6 c 1.3,-1.6 3.6,-1.8 5.2,-0.5 1.6,1.3 1.8,3.6 0.5,5.2 -1.3,1.6 -3.6,1.8 -5.2,0.5 -1.6,-1.3 -1.8,-3.6 -0.5,-5.2 z m -3.9,44.7 c -1.3,1.6 -3.6,1.8 -5.2,0.5 -1.6,-1.3 -1.8,-3.6 -0.5,-5.2 1.3,-1.6 3.6,-1.8 5.2,-0.5 1.6,1.3 1.8,3.6 0.5,5.2 z M 344.9,173 c 1.3,-1.6 3.6,-1.8 5.2,-0.5 1.6,1.3 1.8,3.6 0.5,5.2 -1.3,1.6 -3.6,1.8 -5.2,0.5 -1.6,-1.4 -1.8,-3.7 -0.5,-5.2 z m -6.2,18.8 c -1.3,1.6 -3.6,1.8 -5.2,0.5 -1.6,-1.3 -1.8,-3.6 -0.5,-5.2 1.3,-1.6 3.6,-1.8 5.2,-0.5 1.6,1.3 1.8,3.6 0.5,5.2 z m -7.9,-30.6 c 1.3,-1.6 3.6,-1.8 5.2,-0.5 1.6,1.3 1.8,3.6 0.5,5.2 -1.3,1.6 -3.6,1.8 -5.2,0.5 -1.6,-1.3 -1.8,-3.7 -0.5,-5.2 z m -3.9,44.6 c -1.3,1.6 -3.6,1.8 -5.2,0.5 -1.6,-1.3 -1.8,-3.6 -0.5,-5.2 1.3,-1.6 3.6,-1.8 5.2,-0.5 1.6,1.4 1.8,3.7 0.5,5.2 z M 324.7,180 c -1.3,1.6 -3.6,1.8 -5.2,0.5 -1.6,-1.3 -1.8,-3.6 -0.5,-5.2 1.3,-1.6 3.6,-1.8 5.2,-0.5 1.6,1.3 1.8,3.6 0.5,5.2 z m -7.9,-30.6 c 1.3,-1.6 3.6,-1.8 5.2,-0.5 1.6,1.3 1.8,3.6 0.5,5.2 -1.3,1.6 -3.6,1.8 -5.2,0.5 -1.6,-1.3 -1.8,-3.7 -0.5,-5.2 z m -3.9,44.6 c -1.3,1.6 -3.6,1.8 -5.2,0.5 -1.6,-1.3 -1.8,-3.6 -0.5,-5.2 1.3,-1.6 3.6,-1.8 5.2,-0.5 1.6,1.4 1.8,3.7 0.5,5.2 z M 305,163.5 c 1.3,-1.6 3.6,-1.8 5.2,-0.5 1.6,1.3 1.8,3.6 0.5,5.2 -1.3,1.6 -3.6,1.8 -5.2,0.5 -1.6,-1.4 -1.8,-3.7 -0.5,-5.2 z m -3.9,44.6 c -1.3,1.6 -3.6,1.8 -5.2,0.5 -1.6,-1.3 -1.8,-3.6 -0.5,-5.2 1.3,-1.6 3.6,-1.8 5.2,-0.5 1.6,1.3 1.8,3.6 0.5,5.2 z m -2.3,-25.9 c -1.3,1.6 -3.6,1.8 -5.2,0.5 -1.6,-1.3 -1.8,-3.6 -0.5,-5.2 1.3,-1.6 3.6,-1.8 5.2,-0.5 1.6,1.4 1.8,3.7 0.5,5.2 z m -7.9,-30.5 c 1.3,-1.6 3.6,-1.8 5.2,-0.5 1.6,1.3 1.8,3.6 0.5,5.2 -1.3,1.6 -3.6,1.8 -5.2,0.5 -1.6,-1.4 -1.8,-3.7 -0.5,-5.2 z m -3.9,44.6 c -1.3,1.6 -3.6,1.8 -5.2,0.5 -1.6,-1.3 -1.8,-3.6 -0.5,-5.2 1.3,-1.6 3.6,-1.8 5.2,-0.5 1.6,1.3 1.8,3.6 0.5,5.2 z m -7.9,-30.6 c 1.3,-1.6 3.6,-1.8 5.2,-0.5 1.6,1.3 1.8,3.6 0.5,5.2 -1.3,1.6 -3.6,1.8 -5.2,0.5 -1.6,-1.3 -1.8,-3.6 -0.5,-5.2 z"
         inkscape:connector-curvature="0"
         style="fill:#e9888b" /><path
         id="path3323"
         d="m 446.5,235.7 c -3.2,-9.2 -13.4,-14.1 -22.6,-10.8 l -263.4,92.4 c 0,0 -0.1,0.2 -0.2,0.5 l 90,90.9 71,-25.1 82.9,-29.3 46.6,-47.1 -0.3,-0.2 c -1.8,-0.9 -2.6,-3.1 -1.7,-4.9 0.9,-1.8 3.1,-2.6 4.9,-1.7 0.8,0.4 1.5,1.2 1.9,2 l 10.7,-10.9 0.1,0.2 -19.9,-56 z m -252.1,92.8 c -0.9,1.8 -3.1,2.6 -4.9,1.7 -1.8,-0.9 -2.6,-3.1 -1.7,-4.9 0.9,-1.8 3.1,-2.6 4.9,-1.7 1.8,0.9 2.6,3 1.7,4.9 z M 203,353 c -0.9,1.8 -3.1,2.6 -4.9,1.7 -1.8,-0.9 -2.6,-3.1 -1.7,-4.9 0.9,-1.8 3.1,-2.6 4.9,-1.7 1.8,0.8 2.6,3 1.7,4.9 z m 228.5,-99.8 c 0.9,-1.8 3.1,-2.6 4.9,-1.7 1.8,0.9 2.6,3.1 1.7,4.9 -0.9,1.8 -3.1,2.6 -4.9,1.7 -1.8,-0.9 -2.6,-3 -1.7,-4.9 z m -7.9,16.6 c 0.9,-1.8 3.1,-2.6 4.9,-1.7 1.8,0.9 2.6,3.1 1.7,4.9 -0.9,1.8 -3.1,2.6 -4.9,1.7 -1.8,-0.9 -2.6,-3.1 -1.7,-4.9 z M 415,245.3 c 0.9,-1.8 3.1,-2.6 4.9,-1.7 1.8,0.9 2.6,3.1 1.7,4.9 -0.9,1.8 -3.1,2.6 -4.9,1.7 -1.8,-0.9 -2.6,-3.1 -1.7,-4.9 z m -8,16.5 c 0.9,-1.8 3.1,-2.6 4.9,-1.7 1.8,0.9 2.6,3.1 1.7,4.9 -0.9,1.8 -3.1,2.6 -4.9,1.7 -1.8,-0.8 -2.5,-3 -1.7,-4.9 z m -7.9,16.6 c 0.9,-1.8 3.1,-2.6 4.9,-1.7 1.8,0.9 2.6,3.1 1.7,4.9 -0.9,1.8 -3.1,2.6 -4.9,1.7 -1.8,-0.9 -2.6,-3.1 -1.7,-4.9 z m -8.6,-24.5 c 0.9,-1.8 3.1,-2.6 4.9,-1.7 1.8,0.9 2.6,3.1 1.7,4.9 -0.9,1.8 -3.1,2.6 -4.9,1.7 -1.8,-0.9 -2.6,-3.1 -1.7,-4.9 z m -7.9,16.6 c 0.9,-1.8 3.1,-2.6 4.9,-1.7 1.8,0.9 2.6,3.1 1.7,4.9 -0.9,1.8 -3.1,2.6 -4.9,1.7 -1.9,-0.9 -2.6,-3.1 -1.7,-4.9 z m -8,16.5 c 0.9,-1.8 3.1,-2.6 4.9,-1.7 1.8,0.9 2.6,3.1 1.7,4.9 -0.9,1.8 -3.1,2.6 -4.9,1.7 -1.8,-0.9 -2.6,-3.1 -1.7,-4.9 z M 366,262.5 c 0.9,-1.8 3.1,-2.6 4.9,-1.7 1.8,0.9 2.6,3.1 1.7,4.9 -0.9,1.8 -3.1,2.6 -4.9,1.7 -1.8,-0.8 -2.6,-3 -1.7,-4.9 z m -17.9,11.8 c -0.9,1.8 -3.1,2.6 -4.9,1.7 -1.8,-0.9 -2.6,-3.1 -1.7,-4.9 0.9,-1.8 3.1,-2.6 4.9,-1.7 1.8,0.9 2.6,3.1 1.7,4.9 z m 8.7,24.5 c -0.9,1.8 -3.1,2.6 -4.9,1.7 -1.8,-0.9 -2.6,-3.1 -1.7,-4.9 0.9,-1.8 3.1,-2.6 4.9,-1.7 1.8,0.9 2.5,3.1 1.7,4.9 z m 1.3,-19.7 c 0.9,-1.8 3.1,-2.6 4.9,-1.7 1.8,0.9 2.6,3.1 1.7,4.9 -0.9,1.8 -3.1,2.6 -4.9,1.7 -1.8,-0.9 -2.6,-3.1 -1.7,-4.9 z m 7.3,44.2 c -0.9,1.8 -3.1,2.6 -4.9,1.7 -1.8,-0.9 -2.6,-3.1 -1.7,-4.9 0.9,-1.8 3.1,-2.6 4.9,-1.7 1.8,0.9 2.6,3.1 1.7,4.9 z m 1.3,-19.7 c 0.9,-1.8 3.1,-2.6 4.9,-1.7 1.8,0.9 2.6,3.1 1.7,4.9 -0.9,1.8 -3.1,2.6 -4.9,1.7 -1.8,-0.9 -2.6,-3.1 -1.7,-4.9 z m 7.3,44.2 c -0.9,1.8 -3.1,2.6 -4.9,1.7 -1.8,-0.9 -2.6,-3.1 -1.7,-4.9 0.9,-1.8 3.1,-2.6 4.9,-1.7 1.8,0.9 2.6,3 1.7,4.9 z m 7.9,-16.6 c -0.9,1.8 -3.1,2.6 -4.9,1.7 -1.8,-0.9 -2.6,-3.1 -1.7,-4.9 0.9,-1.8 3.1,-2.6 4.9,-1.7 1.8,0.9 2.6,3.1 1.7,4.9 z m 8,-16.5 c -0.9,1.8 -3.1,2.6 -4.9,1.7 -1.8,-0.9 -2.6,-3.1 -1.7,-4.9 0.9,-1.8 3.1,-2.6 4.9,-1.7 1.8,0.9 2.5,3 1.7,4.9 z m 1.3,-19.7 c 0.9,-1.8 3.1,-2.6 4.9,-1.7 1.8,0.9 2.6,3.1 1.7,4.9 -0.9,1.8 -3.1,2.6 -4.9,1.7 -1.8,-0.9 -2.6,-3.1 -1.7,-4.9 z m 7.3,44.2 c -0.9,1.8 -3.1,2.6 -4.9,1.7 -1.8,-0.9 -2.6,-3.1 -1.7,-4.9 0.9,-1.8 3.1,-2.6 4.9,-1.7 1.8,0.8 2.6,3 1.7,4.9 z m 7.9,-16.6 c -0.9,1.8 -3.1,2.6 -4.9,1.7 -1.8,-0.9 -2.6,-3.1 -1.7,-4.9 0.9,-1.8 3.1,-2.6 4.9,-1.7 1.8,0.9 2.6,3.1 1.7,4.9 z m 7.9,-16.5 c -0.9,1.8 -3.1,2.6 -4.9,1.7 -1.8,-0.9 -2.6,-3.1 -1.7,-4.9 0.9,-1.8 3.1,-2.6 4.9,-1.7 1.8,0.8 2.6,3 1.7,4.9 z m 1.4,-19.8 c 0.9,-1.8 3.1,-2.6 4.9,-1.7 1.8,0.9 2.6,3.1 1.7,4.9 -0.9,1.8 -3.1,2.6 -4.9,1.7 -1.9,-0.9 -2.6,-3 -1.7,-4.9 z m 7.3,44.2 c -0.9,1.8 -3.1,2.6 -4.9,1.7 -1.8,-0.9 -2.6,-3.1 -1.7,-4.9 0.9,-1.8 3.1,-2.6 4.9,-1.7 1.8,0.9 2.5,3.1 1.7,4.9 z m 7.9,-16.5 c -0.9,1.8 -3.1,2.6 -4.9,1.7 -1.8,-0.9 -2.6,-3.1 -1.7,-4.9 0.9,-1.8 3.1,-2.6 4.9,-1.7 1.8,0.9 2.6,3.1 1.7,4.9 z m 7.9,-16.6 c -0.9,1.8 -3.1,2.6 -4.9,1.7 -1.8,-0.9 -2.6,-3.1 -1.7,-4.9 0.9,-1.8 3.1,-2.6 4.9,-1.7 1.8,0.9 2.6,3.1 1.7,4.9 z m 8,-16.5 c -0.9,1.8 -3.1,2.6 -4.9,1.7 -1.8,-0.9 -2.6,-3.1 -1.7,-4.9 0.9,-1.8 3.1,-2.6 4.9,-1.7 1.8,0.9 2.5,3.1 1.7,4.9 z"
         inkscape:connector-curvature="0"
         style="fill:#e9888b" /><path
         id="path3325"
         d="m 160.2,318 c 0,-0.1 0,-0.1 0.1,-0.1 l 0,0 c -0.1,0 -0.1,0.1 -0.1,0.1 z"
         inkscape:connector-curvature="0"
         style="fill:#e9888b" /><path
         id="path3327"
         d="m 160.2,318 c 0,0 0,0.1 0,0 0,0.1 0,0 0,0 z"
         inkscape:connector-curvature="0"
         style="fill:#e9888b" /><path
         id="path3329"
         d="m 160.2,318.1 c -0.1,0.1 -0.1,0.3 -0.2,0.5 0.1,-0.2 0.1,-0.4 0.2,-0.5 z"
         inkscape:connector-curvature="0"
         style="fill:#e9888b" /></g><path
       id="path3331"
       d="m 160.6,327.2 c -0.1,-0.1 -0.1,-0.2 -0.2,-0.3 0.1,0.1 0.1,0.2 0.2,0.3 z"
       inkscape:connector-curvature="0"
       style="fill:#f4c4c5" /><path
       id="path3333"
       d="m 159.3,322.4 c 0,-0.1 0,-0.2 0,-0.3 0,0.1 0,0.2 0,0.3 z"
       inkscape:connector-curvature="0"
       style="fill:#f4c4c5" /><path
       id="path3335"
       d="m 159.4,323.8 c 0,0 0,0 0,0 0,0 0,0 0,0 z"
       inkscape:connector-curvature="0"
       style="fill:#f4c4c5" /><path
       id="path3337"
       d="m 159.8,325.5 c 0,-0.1 -0.1,-0.2 -0.1,-0.3 0,0.1 0,0.2 0.1,0.3 z"
       inkscape:connector-curvature="0"
       style="fill:#f4c4c5" /><path
       id="path3339"
       d="m 159.6,319.7 c 0,0 0.1,-0.1 0,0 0.1,-0.1 0,0 0,0 z"
       inkscape:connector-curvature="0"
       style="fill:#f4c4c5" /><path
       id="path3341"
       d="m 159.9,318.7 c 0,0 0,-0.1 0,-0.1 0.1,0 0.1,0 0,0.1 z"
       inkscape:connector-curvature="0"
       style="fill:#f4c4c5" /><path
       id="path3343"
       d="m 159.4,320.9 c 0,-0.1 0,-0.2 0,-0.3 0,0.2 0,0.2 0,0.3 z"
       inkscape:connector-curvature="0"
       style="fill:#f4c4c5" /><path
       id="path3345"
       d="m 450.8,307.3 4.7,-4.8 c 0,0 0,0 0,0 l -4.7,4.8 0,0 z"
       inkscape:connector-curvature="0"
       style="fill:#f4c4c5" /><polygon
       id="polygon3347"
       points="404.6,354.2 404.2,354.4 404.2,354.4 "
       style="fill:#f4c4c5" /><g
       id="g3349"><path
         id="path3351"
         d="m 373.4,148.7 c -5.3,-2.5 -16,-7.8 -22.6,-8.1 -6.6,-0.3 -71.8,-0.5 -81.2,-0.2 -8.5,0.2 -8.5,4.8 -8.4,5.7 21.1,0 67,0 83.2,0 0.7,-0.2 1.5,-0.3 2.3,0 2.2,0 3.5,0 3.5,0 l 28,11.7 0,-0.3 c 0,-0.1 0.5,-6.2 -4.8,-8.8 z"
         inkscape:connector-curvature="0"
         style="fill:#f4c4c5" /><path
         id="path3353"
         d="m 160,318.5 c 0,0 0,0.1 0,0.1 -0.1,0.3 -0.2,0.6 -0.3,0.9 0,0 0,0.1 0,0.1 -0.1,0.3 -0.1,0.6 -0.2,1 0,0.1 0,0.2 0,0.3 -0.1,0.4 -0.1,0.8 -0.1,1.2 0,0.1 0,0.2 0,0.3 0,0.4 0,0.9 0.1,1.3 0,0 0,0.1 0,0.1 0.1,0.4 0.2,0.9 0.3,1.3 0,0.1 0.1,0.2 0.1,0.3 0.2,0.5 0.4,0.9 0.6,1.4 0.1,0.1 0.1,0.2 0.2,0.3 0.3,0.5 0.6,1 1,1.4 4.5,5.1 75,75.3 78.3,78.5 3.2,3.3 10.1,1.7 10.1,1.7 l 0.2,-0.1 -90,-90.9 c -0.1,0.3 -0.2,0.6 -0.3,0.8 z"
         inkscape:connector-curvature="0"
         style="fill:#f4c4c5" /><path
         id="path3355"
         d="m 466.3,291.8 -0.1,-0.2 -10.7,10.9 c 0,0 0,0 0,0 l -4.7,4.8 0,0 -46.6,47.1 0.4,-0.2 c 0,0 9,-2 14.4,-7.2 5.6,-5.3 41.7,-41.3 45.5,-45.5 3.9,-4.4 1.8,-9.7 1.8,-9.7 z"
         inkscape:connector-curvature="0"
         style="fill:#f4c4c5" /><path
         id="path3357"
         d="m 319.5,294.1 c -2.2,-6.3 -9.1,-9.5 -15.3,-7.3 l -73.6,25.9 c -6.3,2.2 -9.5,9.1 -7.3,15.3 l 18.1,51.3 c 2.2,6.3 9.1,9.5 15.3,7.3 l 73.6,-25.9 c 6.3,-2.2 9.5,-9.1 7.3,-15.3 l -18.1,-51.3 z"
         inkscape:connector-curvature="0"
         style="fill:#f4c4c5" /></g></g><text
     xml:space="preserve"
     style="font-size:300px;font-style:italic;font-variant:normal;font-weight:bold;font-stretch:normal;line-height:125%;letter-spacing:-10px;word-spacing:0px;fill:#000000;fill-opacity:1;stroke:none;font-family:Ubuntu Mono;-inkscape-font-specification:Ubuntu Mono Bold Italic"
     x="391.89999"
     y="257.87421"
     id="text3529"
     sodipodi:linespacing="125%"><tspan
       sodipodi:role="line"
       id="tspan3531"
       x="391.89999"
       y="257.87421">Reek</tspan></text>
</svg>