<?xml version="1.0" encoding="UTF-8" standalone="no"?>
<!-- Generator: Adobe Illustrator 18.0.0, SVG Export Plug-In . SVG Version: 6.00 Build 0)  -->

<svg
   xmlns:dc="http://purl.org/dc/elements/1.1/"
   xmlns:cc="http://creativecommons.org/ns#"
   xmlns:rdf="http://www.w3.org/1999/02/22-rdf-syntax-ns#"
   xmlns:svg="http://www.w3.org/2000/svg"
   xmlns="http://www.w3.org/2000/svg"
   xmlns:sodipodi="http://sodipodi.sourceforge.net/DTD/sodipodi-0.dtd"
   xmlns:inkscape="http://www.inkscape.org/namespaces/inkscape"
   version="1.1"
   id="Ebene_1"
   x="0px"
   y="0px"
   viewBox="0 0 402.4 319.2484"
   enable-background="new 0 0 600 600"
   xml:space="preserve"
   inkscape:version="0.48.4 r9939"
   width="100%"
   height="100%"
   sodipodi:docname="reek.bw.svg"><metadata
     id="metadata4204"><rdf:RDF><cc:Work
         rdf:about=""><dc:format>image/svg+xml</dc:format><dc:type
           rdf:resource="http://purl.org/dc/dcmitype/StillImage" /><dc:title></dc:title></cc:Work></rdf:RDF></metadata><defs
     id="defs4202" /><sodipodi:namedview
     pagecolor="#ffffff"
     bordercolor="#666666"
     borderopacity="1"
     objecttolerance="10"
     gridtolerance="10"
     guidetolerance="10"
     inkscape:pageopacity="0"
     inkscape:pageshadow="2"
     inkscape:window-width="640"
     inkscape:window-height="480"
     id="namedview4200"
     showgrid="false"
     fit-margin-top="0"
     fit-margin-left="0"
     fit-margin-right="0"
     fit-margin-bottom="0"
     inkscape:zoom="0.39333333"
     inkscape:cx="201"
     inkscape:cy="159.4"
     inkscape:window-x="0"
     inkscape:window-y="24"
     inkscape:window-maximized="0"
     inkscape:current-layer="Ebene_1" /><g
     id="g4182"
     transform="translate(-99,-140.1516)"><polygon
       points="255.2,143.7 156.3,184.9 99,256.1 300.2,459.4 300.2,459.4 300.2,459.4 501.4,256.1 444.1,184.9 345.2,143.7 "
       id="polygon4184"
       style="fill:#ffffff" /><g
       id="g4186"><path
         d="m 316.8,294.9 c -1.3,-3.7 -4.8,-6.1 -8.7,-6.1 -1,0 -2.1,0.2 -3.1,0.5 l -73.6,25.9 c -2.3,0.8 -4.2,2.5 -5.2,4.7 -1.1,2.2 -1.2,4.7 -0.4,7 l 18.1,51.3 c 1.3,3.7 4.8,6.1 8.7,6.1 1,0 2.1,-0.2 3.1,-0.5 l 73.6,-25.9 c 2.3,-0.8 4.2,-2.5 5.2,-4.7 1.1,-2.2 1.2,-4.7 0.4,-7 l -18.1,-51.3 z"
         id="path4188"
         inkscape:connector-curvature="0"
         style="fill:#1d1d1b" /><path
         d="m 446.5,235.6 c -3.2,-9.2 -13.4,-14.1 -22.6,-10.8 l -263.6,92.5 c 0,0 -3.4,6.2 1.1,11.3 4.5,5.1 75.1,75.3 78.3,78.6 3.2,3.3 10.1,1.7 10.1,1.7 l 154.7,-54.7 c 0,0 9,-2 14.4,-7.2 5.6,-5.3 41.8,-41.3 45.6,-45.6 3.8,-4.3 1.7,-9.6 1.7,-9.6 l -19.7,-56.2 z m -15,17.5 c 0.9,-1.8 3.1,-2.6 4.9,-1.7 1.8,0.9 2.6,3.1 1.7,4.9 -0.9,1.8 -3.1,2.6 -4.9,1.7 -1.8,-0.9 -2.6,-3.1 -1.7,-4.9 z m -7.9,16.6 c 0.9,-1.8 3.1,-2.6 4.9,-1.7 1.8,0.9 2.6,3.1 1.7,4.9 -0.9,1.8 -3.1,2.6 -4.9,1.7 -1.8,-0.9 -2.6,-3.1 -1.7,-4.9 z m -8.7,-24.5 c 0.9,-1.8 3.1,-2.6 4.9,-1.7 1.8,0.9 2.6,3.1 1.7,4.9 -0.9,1.8 -3.1,2.6 -4.9,1.7 -1.8,-0.9 -2.5,-3.1 -1.7,-4.9 z m -7.9,16.5 c 0.9,-1.8 3.1,-2.6 4.9,-1.7 1.8,0.9 2.6,3.1 1.7,4.9 -0.9,1.8 -3.1,2.6 -4.9,1.7 -1.8,-0.8 -2.6,-3 -1.7,-4.9 z m -7.9,16.6 c 0.9,-1.8 3.1,-2.6 4.9,-1.7 1.8,0.9 2.6,3.1 1.7,4.9 -0.9,1.8 -3.1,2.6 -4.9,1.7 -1.8,-0.9 -2.6,-3.1 -1.7,-4.9 z m -8.7,-24.5 c 0.9,-1.8 3.1,-2.6 4.9,-1.7 1.8,0.9 2.6,3.1 1.7,4.9 -0.9,1.8 -3.1,2.6 -4.9,1.7 -1.8,-0.9 -2.5,-3.1 -1.7,-4.9 z m -7.9,16.6 c 0.9,-1.8 3.1,-2.6 4.9,-1.7 1.8,0.9 2.6,3.1 1.7,4.9 -0.9,1.8 -3.1,2.6 -4.9,1.7 -1.8,-0.9 -2.6,-3.1 -1.7,-4.9 z m -7.9,16.5 c 0.9,-1.8 3.1,-2.6 4.9,-1.7 1.8,0.9 2.6,3.1 1.7,4.9 -0.9,1.8 -3.1,2.6 -4.9,1.7 -1.8,-0.8 -2.6,-3 -1.7,-4.9 z m -8.7,-24.5 c 0.9,-1.8 3.1,-2.6 4.9,-1.7 1.8,0.9 2.6,3.1 1.7,4.9 -0.9,1.8 -3.1,2.6 -4.9,1.7 -1.8,-0.8 -2.5,-3 -1.7,-4.9 z m -171.6,66 c -0.9,1.8 -3.1,2.6 -4.9,1.7 -1.8,-0.9 -2.6,-3.1 -1.7,-4.9 0.9,-1.8 3.1,-2.6 4.9,-1.7 1.8,0.9 2.5,3.1 1.7,4.9 z m 8.6,24.5 c -0.9,1.8 -3.1,2.6 -4.9,1.7 -1.8,-0.9 -2.6,-3.1 -1.7,-4.9 0.9,-1.8 3.1,-2.6 4.9,-1.7 1.8,0.9 2.6,3.1 1.7,4.9 z m 136.7,2.8 c -1.7,3.6 -4.7,6.3 -8.5,7.6 l -73.6,25.9 c -1.6,0.6 -3.3,0.8 -4.9,0.8 -6.3,0 -11.9,-4 -14,-9.9 l -18.1,-51.3 c -1.3,-3.7 -1.1,-7.8 0.6,-11.4 1.7,-3.6 4.7,-6.3 8.5,-7.6 l 73.6,-25.9 c 1.6,-0.6 3.3,-0.8 4.9,-0.8 6.3,0 11.9,4 14,9.9 l 18.1,51.3 c 1.3,3.8 1.1,7.8 -0.6,11.4 z m 8.5,-81.5 c -0.9,1.8 -3.1,2.6 -4.9,1.7 -1.8,-0.9 -2.6,-3.1 -1.7,-4.9 0.9,-1.8 3.1,-2.6 4.9,-1.7 1.8,0.9 2.6,3.1 1.7,4.9 z m 8.6,24.5 c -0.9,1.8 -3.1,2.6 -4.9,1.7 -1.8,-0.9 -2.6,-3.1 -1.7,-4.9 0.9,-1.8 3.1,-2.6 4.9,-1.7 1.8,0.9 2.6,3.1 1.7,4.9 z M 358,279 c 0.9,-1.8 3.1,-2.6 4.9,-1.7 1.8,0.9 2.6,3.1 1.7,4.9 -0.9,1.8 -3.1,2.6 -4.9,1.7 -1.8,-0.9 -2.6,-3.1 -1.7,-4.9 z m 7.3,44.2 c -0.9,1.8 -3.1,2.6 -4.9,1.7 -1.8,-0.9 -2.6,-3.1 -1.7,-4.9 0.9,-1.8 3.1,-2.6 4.9,-1.7 1.8,0.9 2.6,3.1 1.7,4.9 z m 1.3,-19.7 c 0.9,-1.8 3.1,-2.6 4.9,-1.7 1.8,0.9 2.6,3.1 1.7,4.9 -0.9,1.8 -3.1,2.6 -4.9,1.7 -1.8,-0.9 -2.5,-3.1 -1.7,-4.9 z m 7.4,44.2 c -0.9,1.8 -3.1,2.6 -4.9,1.7 -1.8,-0.9 -2.6,-3.1 -1.7,-4.9 0.9,-1.8 3.1,-2.6 4.9,-1.7 1.8,0.9 2.5,3.1 1.7,4.9 z m 7.9,-16.5 c -0.9,1.8 -3.1,2.6 -4.9,1.7 -1.8,-0.9 -2.6,-3.1 -1.7,-4.9 0.9,-1.8 3.1,-2.6 4.9,-1.7 1.8,0.8 2.6,3 1.7,4.9 z m 7.9,-16.6 c -0.9,1.8 -3.1,2.6 -4.9,1.7 -1.8,-0.9 -2.6,-3.1 -1.7,-4.9 0.9,-1.8 3.1,-2.6 4.9,-1.7 1.8,0.9 2.6,3.1 1.7,4.9 z m 1.3,-19.7 c 0.9,-1.8 3.1,-2.6 4.9,-1.7 1.8,0.9 2.6,3.1 1.7,4.9 -0.9,1.8 -3.1,2.6 -4.9,1.7 -1.8,-0.9 -2.5,-3.1 -1.7,-4.9 z m 7.3,44.2 c -0.9,1.8 -3.1,2.6 -4.9,1.7 -1.8,-0.9 -2.6,-3.1 -1.7,-4.9 0.9,-1.8 3.1,-2.6 4.9,-1.7 1.9,0.9 2.6,3.1 1.7,4.9 z m 8,-16.6 c -0.9,1.8 -3.1,2.6 -4.9,1.7 -1.8,-0.9 -2.6,-3.1 -1.7,-4.9 0.9,-1.8 3.1,-2.6 4.9,-1.7 1.8,0.9 2.6,3.1 1.7,4.9 z m 7.9,-16.5 c -0.9,1.8 -3.1,2.6 -4.9,1.7 -1.8,-0.9 -2.6,-3.1 -1.7,-4.9 0.9,-1.8 3.1,-2.6 4.9,-1.7 1.8,0.8 2.6,3 1.7,4.9 z m 1.3,-19.8 c 0.9,-1.8 3.1,-2.6 4.9,-1.7 1.8,0.9 2.6,3.1 1.7,4.9 -0.9,1.8 -3.1,2.6 -4.9,1.7 -1.8,-0.8 -2.5,-3 -1.7,-4.9 z m 7.3,44.3 c -0.9,1.8 -3.1,2.6 -4.9,1.7 -1.8,-0.9 -2.6,-3.1 -1.7,-4.9 0.9,-1.8 3.1,-2.6 4.9,-1.7 1.8,0.8 2.6,3 1.7,4.9 z m 8,-16.6 c -0.9,1.8 -3.1,2.6 -4.9,1.7 -1.8,-0.9 -2.6,-3.1 -1.7,-4.9 0.9,-1.8 3.1,-2.6 4.9,-1.7 1.8,0.9 2.6,3.1 1.7,4.9 z m 7.9,-16.6 c -0.9,1.8 -3.1,2.6 -4.9,1.7 -1.8,-0.9 -2.6,-3.1 -1.7,-4.9 0.9,-1.8 3.1,-2.6 4.9,-1.7 1.8,0.9 2.6,3.1 1.7,4.9 z m 7.9,-16.5 c -0.9,1.8 -3.1,2.6 -4.9,1.7 -1.8,-0.9 -2.6,-3.1 -1.7,-4.9 0.9,-1.8 3.1,-2.6 4.9,-1.7 1.8,0.9 2.6,3.1 1.7,4.9 z m 4.1,26.4 -0.3,-0.2 c -1.8,-0.9 -2.6,-3.1 -1.7,-4.9 0.9,-1.8 3.1,-2.6 4.9,-1.7 0.9,0.4 1.5,1.2 1.9,2 l -4.8,4.8 z"
         id="path4190"
         inkscape:connector-curvature="0"
         style="fill:#1d1d1b" /><polygon
         points="300.2,459.4 395,363.5 382.7,367.9 305.8,445.6 305.9,395.1 254.5,413.2 "
         id="polygon4192"
         style="fill:#1d1d1b" /><path
         d="m 266.5,208 c 0.9,9.7 9.4,16.9 19.2,16.1 l 79.9,-7 c 9.7,-0.9 16.9,-9.4 16.1,-19.2 l -3.5,-40.7 c 0,0 0.5,-6.1 -4.8,-8.6 -5.3,-2.5 -16,-7.8 -22.6,-8.1 -6.6,-0.3 -71.9,-0.5 -81.3,-0.2 -9.4,0.3 -8.4,5.8 -8.4,5.8 l 5.4,61.9 z m 98,-18.7 c -1.3,1.6 -3.6,1.8 -5.2,0.5 -1.6,-1.3 -1.8,-3.6 -0.5,-5.2 1.3,-1.6 3.6,-1.8 5.2,-0.5 1.6,1.4 1.8,3.7 0.5,5.2 z m -7.9,-30.5 c 1.3,-1.6 3.6,-1.8 5.2,-0.5 1.6,1.3 1.8,3.6 0.5,5.2 -1.3,1.6 -3.6,1.8 -5.2,0.5 -1.6,-1.4 -1.8,-3.7 -0.5,-5.2 z m -3.9,44.6 c -1.3,1.6 -3.6,1.8 -5.2,0.5 -1.6,-1.3 -1.8,-3.6 -0.5,-5.2 1.3,-1.6 3.6,-1.8 5.2,-0.5 1.6,1.3 1.8,3.7 0.5,5.2 z m -2.2,-25.9 c -1.3,1.6 -3.6,1.8 -5.2,0.5 -1.6,-1.3 -1.8,-3.6 -0.5,-5.2 1.3,-1.6 3.6,-1.8 5.2,-0.5 1.6,1.4 1.8,3.7 0.5,5.2 z M 342.6,147 c 1.3,-1.6 3.6,-1.8 5.2,-0.5 1.6,1.3 1.8,3.6 0.5,5.2 -1.3,1.6 -3.6,1.8 -5.2,0.5 -1.6,-1.4 -1.8,-3.7 -0.5,-5.2 z m -3.9,44.6 c -1.3,1.6 -3.6,1.8 -5.2,0.5 -1.6,-1.3 -1.8,-3.6 -0.5,-5.2 1.3,-1.6 3.6,-1.8 5.2,-0.5 1.6,1.3 1.8,3.7 0.5,5.2 z M 330.8,161 c 1.3,-1.6 3.6,-1.8 5.2,-0.5 1.6,1.3 1.8,3.6 0.5,5.2 -1.3,1.6 -3.6,1.8 -5.2,0.5 -1.6,-1.3 -1.8,-3.6 -0.5,-5.2 z m -3.9,44.7 c -1.3,1.6 -3.6,1.8 -5.2,0.5 -1.6,-1.3 -1.8,-3.6 -0.5,-5.2 1.3,-1.6 3.6,-1.8 5.2,-0.5 1.6,1.3 1.8,3.6 0.5,5.2 z m -2.3,-25.9 c -1.3,1.6 -3.6,1.8 -5.2,0.5 -1.6,-1.3 -1.8,-3.6 -0.5,-5.2 1.3,-1.6 3.6,-1.8 5.2,-0.5 1.6,1.3 1.8,3.7 0.5,5.2 z m -7.9,-30.6 c 1.3,-1.6 3.6,-1.8 5.2,-0.5 1.6,1.3 1.8,3.6 0.5,5.2 -1.3,1.6 -3.6,1.8 -5.2,0.5 -1.6,-1.3 -1.8,-3.6 -0.5,-5.2 z m -3.9,44.7 c -1.3,1.6 -3.6,1.8 -5.2,0.5 -1.6,-1.3 -1.8,-3.6 -0.5,-5.2 1.3,-1.6 3.6,-1.8 5.2,-0.5 1.6,1.3 1.8,3.6 0.5,5.2 z m -7.9,-30.6 c 1.3,-1.6 3.6,-1.8 5.2,-0.5 1.6,1.3 1.8,3.6 0.5,5.2 -1.3,1.6 -3.6,1.8 -5.2,0.5 -1.6,-1.3 -1.8,-3.6 -0.5,-5.2 z M 301,208 c -1.3,1.6 -3.6,1.8 -5.2,0.5 -1.6,-1.3 -1.8,-3.6 -0.5,-5.2 1.3,-1.6 3.6,-1.8 5.2,-0.5 1.6,1.3 1.8,3.6 0.5,5.2 z m -2.3,-25.9 c -1.3,1.6 -3.6,1.8 -5.2,0.5 -1.6,-1.3 -1.8,-3.6 -0.5,-5.2 1.3,-1.6 3.6,-1.8 5.2,-0.5 1.6,1.3 1.8,3.6 0.5,5.2 z m -7.9,-30.6 c 1.3,-1.6 3.6,-1.8 5.2,-0.5 1.6,1.3 1.8,3.6 0.5,5.2 -1.3,1.6 -3.6,1.8 -5.2,0.5 -1.6,-1.3 -1.8,-3.6 -0.5,-5.2 z m -3.9,44.7 c -1.3,1.6 -3.6,1.8 -5.2,0.5 -1.6,-1.3 -1.8,-3.6 -0.5,-5.2 1.3,-1.6 3.6,-1.8 5.2,-0.5 1.6,1.3 1.8,3.6 0.5,5.2 z M 279,165.6 c 1.3,-1.6 3.6,-1.8 5.2,-0.5 1.6,1.3 1.8,3.6 0.5,5.2 -1.3,1.6 -3.6,1.8 -5.2,0.5 -1.6,-1.4 -1.8,-3.7 -0.5,-5.2 z"
         id="path4194"
         inkscape:connector-curvature="0"
         style="fill:#1d1d1b" /><path
         d="m 262.7,239.5 11.9,-11.7 c -7.6,-3.3 -13,-10.5 -13.8,-19.3 l -5.6,-64.8 -98.9,41.2 -57.3,71.2 56.3,56.9 121,-42.4 -13.6,-31.1 z"
         id="path4196"
         inkscape:connector-curvature="0"
         style="fill:#1d1d1b" /><polygon
         points="440.6,189.6 493.8,255.7 468.6,281.1 470.7,287.1 501.4,256.1 444.1,184.9 384.1,160 384.6,166.3 "
         id="polygon4198"
         style="fill:#1d1d1b" /></g></g></svg>